<svg width="1363" height="167" viewBox="0 0 1363 167" fill="none" xmlns="http://www.w3.org/2000/svg">
<g style="mix-blend-mode:exclusion">
<rect width="1363" height="167" rx="15" fill="white" fill-opacity="0.05"/>
</g>
<g style="mix-blend-mode:exclusion">
<path d="M0 15C0 6.71573 6.71573 0 15 0H37V167H15C6.71573 167 0 160.284 0 152V15Z" fill="white" fill-opacity="0.25"/>
</g>
<g style="mix-blend-mode:exclusion">
<path d="M100.906 54.9219L93.3945 52.2383V49.0859L103.602 53.375V55.6367L100.906 54.9219ZM93.3945 57.1719L100.918 54.4297L103.602 53.7852V56.0352L93.3945 60.3242V57.1719ZM111.898 44.9375H118.262C119.566 44.9375 120.688 45.1328 121.625 45.5234C122.57 45.9141 123.297 46.4922 123.805 47.2578C124.312 48.0234 124.566 48.9648 124.566 50.082C124.566 50.9961 124.41 51.7812 124.098 52.4375C123.793 53.0859 123.359 53.6289 122.797 54.0664C122.242 54.4961 121.59 54.8398 120.84 55.0977L119.727 55.6836H114.195L114.172 52.9414H118.285C118.902 52.9414 119.414 52.832 119.82 52.6133C120.227 52.3945 120.531 52.0898 120.734 51.6992C120.945 51.3086 121.051 50.8555 121.051 50.3398C121.051 49.793 120.949 49.3203 120.746 48.9219C120.543 48.5234 120.234 48.2188 119.82 48.0078C119.406 47.7969 118.887 47.6914 118.262 47.6914H115.414V62H111.898V44.9375ZM121.438 62L117.547 54.3945L121.262 54.3711L125.199 61.8359V62H121.438ZM132.898 62.2344C131.914 62.2344 131.031 62.0781 130.25 61.7656C129.469 61.4453 128.805 61.0039 128.258 60.4414C127.719 59.8789 127.305 59.2266 127.016 58.4844C126.727 57.7344 126.582 56.9375 126.582 56.0938V55.625C126.582 54.6641 126.719 53.7852 126.992 52.9883C127.266 52.1914 127.656 51.5 128.164 50.9141C128.68 50.3281 129.305 49.8789 130.039 49.5664C130.773 49.2461 131.602 49.0859 132.523 49.0859C133.422 49.0859 134.219 49.2344 134.914 49.5312C135.609 49.8281 136.191 50.25 136.66 50.7969C137.137 51.3438 137.496 52 137.738 52.7656C137.98 53.5234 138.102 54.3672 138.102 55.2969V56.7031H128.023V54.4531H134.785V54.1953C134.785 53.7266 134.699 53.3086 134.527 52.9414C134.363 52.5664 134.113 52.2695 133.777 52.0508C133.441 51.832 133.012 51.7227 132.488 51.7227C132.043 51.7227 131.66 51.8203 131.34 52.0156C131.02 52.2109 130.758 52.4844 130.555 52.8359C130.359 53.1875 130.211 53.6016 130.109 54.0781C130.016 54.5469 129.969 55.0625 129.969 55.625V56.0938C129.969 56.6016 130.039 57.0703 130.18 57.5C130.328 57.9297 130.535 58.3008 130.801 58.6133C131.074 58.9258 131.402 59.168 131.785 59.3398C132.176 59.5117 132.617 59.5977 133.109 59.5977C133.719 59.5977 134.285 59.4805 134.809 59.2461C135.34 59.0039 135.797 58.6406 136.18 58.1562L137.82 59.9375C137.555 60.3203 137.191 60.6875 136.73 61.0391C136.277 61.3906 135.73 61.6797 135.09 61.9062C134.449 62.125 133.719 62.2344 132.898 62.2344ZM145.262 59.5977C145.676 59.5977 146.043 59.5195 146.363 59.3633C146.684 59.1992 146.934 58.9727 147.113 58.6836C147.301 58.3867 147.398 58.0391 147.406 57.6406H150.582C150.574 58.5312 150.336 59.3242 149.867 60.0195C149.398 60.707 148.77 61.25 147.98 61.6484C147.191 62.0391 146.309 62.2344 145.332 62.2344C144.348 62.2344 143.488 62.0703 142.754 61.7422C142.027 61.4141 141.422 60.9609 140.938 60.3828C140.453 59.7969 140.09 59.1172 139.848 58.3438C139.605 57.5625 139.484 56.7266 139.484 55.8359V55.4961C139.484 54.5977 139.605 53.7617 139.848 52.9883C140.09 52.207 140.453 51.5273 140.938 50.9492C141.422 50.3633 142.027 49.9062 142.754 49.5781C143.48 49.25 144.332 49.0859 145.309 49.0859C146.348 49.0859 147.258 49.2852 148.039 49.6836C148.828 50.082 149.445 50.6523 149.891 51.3945C150.344 52.1289 150.574 53 150.582 54.0078H147.406C147.398 53.5859 147.309 53.2031 147.137 52.8594C146.973 52.5156 146.73 52.2422 146.41 52.0391C146.098 51.8281 145.711 51.7227 145.25 51.7227C144.758 51.7227 144.355 51.8281 144.043 52.0391C143.73 52.2422 143.488 52.5234 143.316 52.8828C143.145 53.2344 143.023 53.6367 142.953 54.0898C142.891 54.5352 142.859 55.0039 142.859 55.4961V55.8359C142.859 56.3281 142.891 56.8008 142.953 57.2539C143.016 57.707 143.133 58.1094 143.305 58.4609C143.484 58.8125 143.73 59.0898 144.043 59.293C144.355 59.4961 144.762 59.5977 145.262 59.5977ZM152 55.7891V55.543C152 54.6133 152.133 53.7578 152.398 52.9766C152.664 52.1875 153.051 51.5039 153.559 50.9258C154.066 50.3477 154.691 49.8984 155.434 49.5781C156.176 49.25 157.027 49.0859 157.988 49.0859C158.949 49.0859 159.805 49.25 160.555 49.5781C161.305 49.8984 161.934 50.3477 162.441 50.9258C162.957 51.5039 163.348 52.1875 163.613 52.9766C163.879 53.7578 164.012 54.6133 164.012 55.543V55.7891C164.012 56.7109 163.879 57.5664 163.613 58.3555C163.348 59.1367 162.957 59.8203 162.441 60.4062C161.934 60.9844 161.309 61.4336 160.566 61.7539C159.824 62.0742 158.973 62.2344 158.012 62.2344C157.051 62.2344 156.195 62.0742 155.445 61.7539C154.703 61.4336 154.074 60.9844 153.559 60.4062C153.051 59.8203 152.664 59.1367 152.398 58.3555C152.133 57.5664 152 56.7109 152 55.7891ZM155.375 55.543V55.7891C155.375 56.3203 155.422 56.8164 155.516 57.2773C155.609 57.7383 155.758 58.1445 155.961 58.4961C156.172 58.8398 156.445 59.1094 156.781 59.3047C157.117 59.5 157.527 59.5977 158.012 59.5977C158.48 59.5977 158.883 59.5 159.219 59.3047C159.555 59.1094 159.824 58.8398 160.027 58.4961C160.23 58.1445 160.379 57.7383 160.473 57.2773C160.574 56.8164 160.625 56.3203 160.625 55.7891V55.543C160.625 55.0273 160.574 54.543 160.473 54.0898C160.379 53.6289 160.227 53.2227 160.016 52.8711C159.812 52.5117 159.543 52.2305 159.207 52.0273C158.871 51.8242 158.465 51.7227 157.988 51.7227C157.512 51.7227 157.105 51.8242 156.77 52.0273C156.441 52.2305 156.172 52.5117 155.961 52.8711C155.758 53.2227 155.609 53.6289 155.516 54.0898C155.422 54.543 155.375 55.0273 155.375 55.543ZM169.461 52.0859V62H166.086V49.3203H169.262L169.461 52.0859ZM173.281 49.2383L173.223 52.3672C173.059 52.3438 172.859 52.3242 172.625 52.3086C172.398 52.2852 172.191 52.2734 172.004 52.2734C171.527 52.2734 171.113 52.3359 170.762 52.4609C170.418 52.5781 170.129 52.7539 169.895 52.9883C169.668 53.2227 169.496 53.5078 169.379 53.8438C169.27 54.1797 169.207 54.5625 169.191 54.9922L168.512 54.7812C168.512 53.9609 168.594 53.207 168.758 52.5195C168.922 51.8242 169.16 51.2188 169.473 50.7031C169.793 50.1875 170.184 49.7891 170.645 49.5078C171.105 49.2266 171.633 49.0859 172.227 49.0859C172.414 49.0859 172.605 49.1016 172.801 49.1328C172.996 49.1562 173.156 49.1914 173.281 49.2383ZM182.129 59.2344V44H185.527V62H182.469L182.129 59.2344ZM174.113 55.8125V55.5664C174.113 54.5977 174.223 53.7188 174.441 52.9297C174.66 52.1328 174.98 51.4492 175.402 50.8789C175.824 50.3086 176.344 49.8672 176.961 49.5547C177.578 49.2422 178.281 49.0859 179.07 49.0859C179.812 49.0859 180.461 49.2422 181.016 49.5547C181.578 49.8672 182.055 50.3125 182.445 50.8906C182.844 51.4609 183.164 52.1367 183.406 52.918C183.648 53.6914 183.824 54.5391 183.934 55.4609V56C183.824 56.8828 183.648 57.7031 183.406 58.4609C183.164 59.2188 182.844 59.8828 182.445 60.4531C182.055 61.0156 181.578 61.4531 181.016 61.7656C180.453 62.0781 179.797 62.2344 179.047 62.2344C178.258 62.2344 177.555 62.0742 176.938 61.7539C176.328 61.4336 175.812 60.9844 175.391 60.4062C174.977 59.8281 174.66 59.1484 174.441 58.3672C174.223 57.5859 174.113 56.7344 174.113 55.8125ZM177.488 55.5664V55.8125C177.488 56.3359 177.527 56.8242 177.605 57.2773C177.691 57.7305 177.828 58.1328 178.016 58.4844C178.211 58.8281 178.461 59.0977 178.766 59.293C179.078 59.4805 179.457 59.5742 179.902 59.5742C180.48 59.5742 180.957 59.4453 181.332 59.1875C181.707 58.9219 181.992 58.5586 182.188 58.0977C182.391 57.6367 182.508 57.1055 182.539 56.5039V54.9688C182.516 54.4766 182.445 54.0352 182.328 53.6445C182.219 53.2461 182.055 52.9062 181.836 52.625C181.625 52.3438 181.359 52.125 181.039 51.9688C180.727 51.8125 180.355 51.7344 179.926 51.7344C179.488 51.7344 179.113 51.8359 178.801 52.0391C178.488 52.2344 178.234 52.5039 178.039 52.8477C177.852 53.1914 177.711 53.5977 177.617 54.0664C177.531 54.5273 177.488 55.0273 177.488 55.5664ZM191.727 49.3203V62H188.34V49.3203H191.727ZM188.129 46.0156C188.129 45.5234 188.301 45.1172 188.645 44.7969C188.988 44.4766 189.449 44.3164 190.027 44.3164C190.598 44.3164 191.055 44.4766 191.398 44.7969C191.75 45.1172 191.926 45.5234 191.926 46.0156C191.926 46.5078 191.75 46.9141 191.398 47.2344C191.055 47.5547 190.598 47.7148 190.027 47.7148C189.449 47.7148 188.988 47.5547 188.645 47.2344C188.301 46.9141 188.129 46.5078 188.129 46.0156ZM198.078 44V62H194.691V44H198.078ZM204.629 60.5703L207.992 49.3203H211.613L206.516 63.9102C206.406 64.2305 206.258 64.5742 206.07 64.9414C205.891 65.3086 205.645 65.6562 205.332 65.9844C205.027 66.3203 204.641 66.5938 204.172 66.8047C203.711 67.0156 203.145 67.1211 202.473 67.1211C202.152 67.1211 201.891 67.1016 201.688 67.0625C201.484 67.0234 201.242 66.9688 200.961 66.8984V64.4258C201.047 64.4258 201.137 64.4258 201.23 64.4258C201.324 64.4336 201.414 64.4375 201.5 64.4375C201.945 64.4375 202.309 64.3867 202.59 64.2852C202.871 64.1836 203.098 64.0273 203.27 63.8164C203.441 63.6133 203.578 63.3477 203.68 63.0195L204.629 60.5703ZM203.223 49.3203L205.977 58.5078L206.457 62.082L204.16 62.3281L199.602 49.3203H203.223Z" fill="white" fill-opacity="0.5"/>
</g>
<g style="mix-blend-mode:exclusion">
<path d="M115.994 98.708V104.641H99.5806V98.708H115.994ZM102.151 86.0078V118H94.439V86.0078H102.151ZM121.18 86.0078V118H113.489V86.0078H121.18ZM124.805 106.354V105.893C124.805 104.15 125.054 102.546 125.552 101.081C126.05 99.6016 126.783 98.3198 127.75 97.2358C128.716 96.1519 129.91 95.3096 131.331 94.709C132.752 94.0938 134.393 93.7861 136.253 93.7861C138.128 93.7861 139.776 94.0938 141.197 94.709C142.632 95.3096 143.833 96.1519 144.8 97.2358C145.767 98.3198 146.5 99.6016 146.998 101.081C147.496 102.546 147.745 104.15 147.745 105.893V106.354C147.745 108.083 147.496 109.687 146.998 111.167C146.5 112.631 145.767 113.913 144.8 115.012C143.833 116.096 142.64 116.938 141.219 117.539C139.798 118.139 138.157 118.439 136.297 118.439C134.437 118.439 132.789 118.139 131.353 117.539C129.917 116.938 128.716 116.096 127.75 115.012C126.783 113.913 126.05 112.631 125.552 111.167C125.054 109.687 124.805 108.083 124.805 106.354ZM132.21 105.893V106.354C132.21 107.248 132.276 108.083 132.408 108.859C132.54 109.636 132.759 110.317 133.067 110.903C133.375 111.474 133.792 111.921 134.319 112.243C134.847 112.565 135.506 112.727 136.297 112.727C137.073 112.727 137.718 112.565 138.23 112.243C138.758 111.921 139.175 111.474 139.483 110.903C139.791 110.317 140.01 109.636 140.142 108.859C140.274 108.083 140.34 107.248 140.34 106.354V105.893C140.34 105.029 140.274 104.216 140.142 103.454C140.01 102.678 139.791 101.997 139.483 101.411C139.175 100.81 138.758 100.341 138.23 100.004C137.703 99.6675 137.044 99.499 136.253 99.499C135.477 99.499 134.825 99.6675 134.297 100.004C133.785 100.341 133.375 100.81 133.067 101.411C132.759 101.997 132.54 102.678 132.408 103.454C132.276 104.216 132.21 105.029 132.21 105.893ZM158.27 110.925L162.664 94.2256H167.3L165.652 102.597L161.302 118H157.588L158.27 110.925ZM156.534 94.2256L159.258 110.793L159.566 118H155.062L149.437 94.2256H156.534ZM171.211 110.441L173.958 94.2256H181.055L175.474 118H170.97L171.211 110.441ZM167.828 94.2256L172.266 110.881L172.947 118H169.19L164.927 102.641L163.345 94.2256H167.828ZM209.466 86.0078V118H201.753V86.0078H209.466ZM219.09 86.0078V91.9624H192.349V86.0078H219.09ZM216.475 106.354V105.893C216.475 104.15 216.724 102.546 217.222 101.081C217.72 99.6016 218.453 98.3198 219.419 97.2358C220.386 96.1519 221.58 95.3096 223.001 94.709C224.422 94.0938 226.062 93.7861 227.923 93.7861C229.798 93.7861 231.446 94.0938 232.867 94.709C234.302 95.3096 235.503 96.1519 236.47 97.2358C237.437 98.3198 238.169 99.6016 238.667 101.081C239.166 102.546 239.415 104.15 239.415 105.893V106.354C239.415 108.083 239.166 109.687 238.667 111.167C238.169 112.631 237.437 113.913 236.47 115.012C235.503 116.096 234.31 116.938 232.889 117.539C231.468 118.139 229.827 118.439 227.967 118.439C226.106 118.439 224.458 118.139 223.023 117.539C221.587 116.938 220.386 116.096 219.419 115.012C218.453 113.913 217.72 112.631 217.222 111.167C216.724 109.687 216.475 108.083 216.475 106.354ZM223.88 105.893V106.354C223.88 107.248 223.946 108.083 224.078 108.859C224.209 109.636 224.429 110.317 224.737 110.903C225.044 111.474 225.462 111.921 225.989 112.243C226.517 112.565 227.176 112.727 227.967 112.727C228.743 112.727 229.388 112.565 229.9 112.243C230.428 111.921 230.845 111.474 231.153 110.903C231.46 110.317 231.68 109.636 231.812 108.859C231.944 108.083 232.01 107.248 232.01 106.354V105.893C232.01 105.029 231.944 104.216 231.812 103.454C231.68 102.678 231.46 101.997 231.153 101.411C230.845 100.81 230.428 100.341 229.9 100.004C229.373 99.6675 228.714 99.499 227.923 99.499C227.146 99.499 226.495 99.6675 225.967 100.004C225.455 100.341 225.044 100.81 224.737 101.411C224.429 101.997 224.209 102.678 224.078 103.454C223.946 104.216 223.88 105.029 223.88 105.893ZM254.268 86.0078H266.858C269.319 86.0078 271.458 86.374 273.274 87.1064C275.091 87.8389 276.49 88.9229 277.471 90.3584C278.467 91.7939 278.965 93.5664 278.965 95.6758C278.965 97.5068 278.68 99.0376 278.108 100.268C277.537 101.499 276.739 102.517 275.713 103.322C274.703 104.113 273.523 104.765 272.176 105.278L269.649 106.706H259.08L259.036 100.751H266.858C267.84 100.751 268.653 100.576 269.297 100.224C269.942 99.8726 270.425 99.3745 270.748 98.73C271.084 98.0708 271.253 97.2871 271.253 96.3789C271.253 95.4561 271.084 94.665 270.748 94.0059C270.411 93.3467 269.913 92.8413 269.253 92.4897C268.609 92.1382 267.811 91.9624 266.858 91.9624H261.98V118H254.268V86.0078ZM271.78 118L264.705 103.85L272.879 103.806L280.042 117.67V118H271.78ZM297.159 112.221V94.2256H304.585V118H297.642L297.159 112.221ZM297.862 107.387L299.795 107.343C299.795 108.94 299.605 110.419 299.224 111.782C298.843 113.129 298.279 114.301 297.532 115.297C296.8 116.293 295.892 117.07 294.808 117.626C293.738 118.168 292.5 118.439 291.094 118.439C289.922 118.439 288.846 118.278 287.864 117.956C286.897 117.619 286.062 117.099 285.359 116.396C284.656 115.678 284.107 114.763 283.711 113.649C283.331 112.521 283.14 111.174 283.14 109.606V94.2256H290.545V109.65C290.545 110.178 290.611 110.632 290.743 111.013C290.875 111.394 291.065 111.716 291.314 111.979C291.563 112.229 291.871 112.419 292.237 112.551C292.618 112.668 293.05 112.727 293.533 112.727C294.646 112.727 295.518 112.492 296.148 112.023C296.778 111.555 297.217 110.917 297.466 110.112C297.73 109.306 297.862 108.398 297.862 107.387ZM315.945 99.3013V118H308.541V94.2256H315.484L315.945 99.3013ZM315.066 105.3L313.331 105.344C313.331 103.527 313.55 101.909 313.99 100.488C314.429 99.0522 315.052 97.8364 315.857 96.8403C316.663 95.8442 317.623 95.0898 318.736 94.5771C319.864 94.0498 321.116 93.7861 322.493 93.7861C323.592 93.7861 324.595 93.9473 325.503 94.2695C326.426 94.5918 327.217 95.1118 327.876 95.8296C328.55 96.5474 329.063 97.4995 329.415 98.686C329.781 99.8579 329.964 101.308 329.964 103.037V118H322.515V103.015C322.515 102.062 322.383 101.337 322.12 100.839C321.856 100.327 321.475 99.9751 320.977 99.7847C320.479 99.5942 319.871 99.499 319.153 99.499C318.392 99.499 317.747 99.6455 317.22 99.9385C316.692 100.231 316.268 100.642 315.945 101.169C315.638 101.682 315.411 102.29 315.264 102.993C315.132 103.696 315.066 104.465 315.066 105.3ZM345.85 107.871H339.544C339.544 106.582 339.632 105.446 339.808 104.465C339.998 103.469 340.32 102.575 340.774 101.784C341.229 100.993 341.844 100.261 342.62 99.5869C343.309 99.0156 343.902 98.4663 344.4 97.939C344.898 97.4116 345.279 96.877 345.542 96.335C345.806 95.793 345.938 95.2144 345.938 94.5991C345.938 93.8374 345.828 93.2148 345.608 92.7314C345.403 92.248 345.088 91.8892 344.664 91.6548C344.253 91.4058 343.733 91.2812 343.104 91.2812C342.591 91.2812 342.107 91.4058 341.653 91.6548C341.214 91.9038 340.855 92.292 340.577 92.8193C340.298 93.332 340.145 94.0132 340.115 94.8628H332.667C332.71 92.6802 333.194 90.9077 334.117 89.5454C335.054 88.1685 336.299 87.165 337.852 86.5352C339.419 85.8906 341.17 85.5684 343.104 85.5684C345.242 85.5684 347.081 85.8979 348.619 86.5571C350.157 87.2163 351.336 88.1978 352.156 89.5015C352.977 90.7905 353.387 92.3799 353.387 94.2695C353.387 95.5293 353.145 96.6279 352.662 97.5654C352.193 98.4883 351.556 99.3525 350.75 100.158C349.959 100.949 349.073 101.799 348.091 102.707C347.242 103.454 346.663 104.216 346.355 104.992C346.048 105.754 345.879 106.713 345.85 107.871ZM338.643 114.55C338.643 113.496 339.024 112.617 339.786 111.914C340.547 111.196 341.536 110.837 342.752 110.837C343.968 110.837 344.957 111.196 345.718 111.914C346.48 112.617 346.861 113.496 346.861 114.55C346.861 115.605 346.48 116.491 345.718 117.209C344.957 117.912 343.968 118.264 342.752 118.264C341.536 118.264 340.547 117.912 339.786 117.209C339.024 116.491 338.643 115.605 338.643 114.55Z" fill="white"/>
</g>
<path d="M1363 15C1363 6.71573 1356.28 0 1348 0H1134V167H1348C1356.28 167 1363 160.284 1363 152V15Z" fill="#C01A56"/>
<path d="M1260.77 81.3079C1263.96 81.3079 1267.09 82.2553 1269.74 84.0303C1272.4 85.8053 1274.47 88.3282 1275.69 91.2799C1276.92 94.2316 1277.24 97.4796 1276.61 100.613C1275.99 103.747 1274.45 106.625 1272.19 108.884C1269.93 111.143 1267.05 112.682 1263.92 113.305C1260.79 113.928 1257.54 113.608 1254.59 112.386C1251.64 111.163 1249.11 109.093 1247.34 106.436C1245.56 103.78 1244.62 100.657 1244.62 97.4617C1244.62 93.1774 1246.32 89.0686 1249.35 86.0392C1252.38 83.0098 1256.48 81.3079 1260.77 81.3079ZM1260.77 75.9233C1256.51 75.9233 1252.35 77.1865 1248.8 79.5532C1245.26 81.9198 1242.5 85.2837 1240.87 89.2193C1239.24 93.1549 1238.81 97.4856 1239.64 101.664C1240.48 105.842 1242.53 109.679 1245.54 112.692C1248.55 115.704 1252.39 117.755 1256.57 118.586C1260.75 119.417 1265.08 118.991 1269.01 117.361C1272.95 115.73 1276.31 112.97 1278.68 109.428C1281.04 105.886 1282.31 101.722 1282.31 97.4617C1282.31 91.7493 1280.04 86.271 1276 82.2317C1271.96 78.1925 1266.48 75.9233 1260.77 75.9233Z" fill="white"/>
<path d="M1274.23 49H1220.38C1218.96 49 1217.59 49.5673 1216.58 50.5771C1215.57 51.5869 1215 52.9565 1215 54.3846V108.231C1215 109.659 1215.57 111.028 1216.58 112.038C1217.59 113.048 1218.96 113.615 1220.38 113.615H1231.15V108.231H1220.38V70.5384H1279.62V54.3846C1279.62 52.9565 1279.05 51.5869 1278.04 50.5771C1277.03 49.5673 1275.66 49 1274.23 49ZM1220.38 65.1538V54.3846H1274.23V65.1538H1220.38Z" fill="white"/>
<path d="M1255.39 89.3849V105.539L1268.85 97.4618L1255.39 89.3849Z" fill="white"/>
</svg>
