<svg width="1363" height="167" viewBox="0 0 1363 167" fill="none" xmlns="http://www.w3.org/2000/svg">
<rect width="1363" height="167" rx="15" fill="#F0F0F0"/>
<path d="M0 15C0 6.71573 6.71573 0 15 0H37V167H15C6.71573 167 0 160.284 0 152V15Z" fill="#424241"/>
<path d="M100.906 54.9219L93.3945 52.2383V49.0859L103.602 53.375V55.6367L100.906 54.9219ZM93.3945 57.1719L100.918 54.4297L103.602 53.7852V56.0352L93.3945 60.3242V57.1719ZM111.898 44.9375H118.262C119.566 44.9375 120.688 45.1328 121.625 45.5234C122.57 45.9141 123.297 46.4922 123.805 47.2578C124.312 48.0234 124.566 48.9648 124.566 50.082C124.566 50.9961 124.41 51.7812 124.098 52.4375C123.793 53.0859 123.359 53.6289 122.797 54.0664C122.242 54.4961 121.59 54.8398 120.84 55.0977L119.727 55.6836H114.195L114.172 52.9414H118.285C118.902 52.9414 119.414 52.832 119.82 52.6133C120.227 52.3945 120.531 52.0898 120.734 51.6992C120.945 51.3086 121.051 50.8555 121.051 50.3398C121.051 49.793 120.949 49.3203 120.746 48.9219C120.543 48.5234 120.234 48.2188 119.82 48.0078C119.406 47.7969 118.887 47.6914 118.262 47.6914H115.414V62H111.898V44.9375ZM121.438 62L117.547 54.3945L121.262 54.3711L125.199 61.8359V62H121.438ZM132.898 62.2344C131.914 62.2344 131.031 62.0781 130.25 61.7656C129.469 61.4453 128.805 61.0039 128.258 60.4414C127.719 59.8789 127.305 59.2266 127.016 58.4844C126.727 57.7344 126.582 56.9375 126.582 56.0938V55.625C126.582 54.6641 126.719 53.7852 126.992 52.9883C127.266 52.1914 127.656 51.5 128.164 50.9141C128.68 50.3281 129.305 49.8789 130.039 49.5664C130.773 49.2461 131.602 49.0859 132.523 49.0859C133.422 49.0859 134.219 49.2344 134.914 49.5312C135.609 49.8281 136.191 50.25 136.66 50.7969C137.137 51.3438 137.496 52 137.738 52.7656C137.98 53.5234 138.102 54.3672 138.102 55.2969V56.7031H128.023V54.4531H134.785V54.1953C134.785 53.7266 134.699 53.3086 134.527 52.9414C134.363 52.5664 134.113 52.2695 133.777 52.0508C133.441 51.832 133.012 51.7227 132.488 51.7227C132.043 51.7227 131.66 51.8203 131.34 52.0156C131.02 52.2109 130.758 52.4844 130.555 52.8359C130.359 53.1875 130.211 53.6016 130.109 54.0781C130.016 54.5469 129.969 55.0625 129.969 55.625V56.0938C129.969 56.6016 130.039 57.0703 130.18 57.5C130.328 57.9297 130.535 58.3008 130.801 58.6133C131.074 58.9258 131.402 59.168 131.785 59.3398C132.176 59.5117 132.617 59.5977 133.109 59.5977C133.719 59.5977 134.285 59.4805 134.809 59.2461C135.34 59.0039 135.797 58.6406 136.18 58.1562L137.82 59.9375C137.555 60.3203 137.191 60.6875 136.73 61.0391C136.277 61.3906 135.73 61.6797 135.09 61.9062C134.449 62.125 133.719 62.2344 132.898 62.2344ZM145.262 59.5977C145.676 59.5977 146.043 59.5195 146.363 59.3633C146.684 59.1992 146.934 58.9727 147.113 58.6836C147.301 58.3867 147.398 58.0391 147.406 57.6406H150.582C150.574 58.5312 150.336 59.3242 149.867 60.0195C149.398 60.707 148.77 61.25 147.98 61.6484C147.191 62.0391 146.309 62.2344 145.332 62.2344C144.348 62.2344 143.488 62.0703 142.754 61.7422C142.027 61.4141 141.422 60.9609 140.938 60.3828C140.453 59.7969 140.09 59.1172 139.848 58.3438C139.605 57.5625 139.484 56.7266 139.484 55.8359V55.4961C139.484 54.5977 139.605 53.7617 139.848 52.9883C140.09 52.207 140.453 51.5273 140.938 50.9492C141.422 50.3633 142.027 49.9062 142.754 49.5781C143.48 49.25 144.332 49.0859 145.309 49.0859C146.348 49.0859 147.258 49.2852 148.039 49.6836C148.828 50.082 149.445 50.6523 149.891 51.3945C150.344 52.1289 150.574 53 150.582 54.0078H147.406C147.398 53.5859 147.309 53.2031 147.137 52.8594C146.973 52.5156 146.73 52.2422 146.41 52.0391C146.098 51.8281 145.711 51.7227 145.25 51.7227C144.758 51.7227 144.355 51.8281 144.043 52.0391C143.73 52.2422 143.488 52.5234 143.316 52.8828C143.145 53.2344 143.023 53.6367 142.953 54.0898C142.891 54.5352 142.859 55.0039 142.859 55.4961V55.8359C142.859 56.3281 142.891 56.8008 142.953 57.2539C143.016 57.707 143.133 58.1094 143.305 58.4609C143.484 58.8125 143.73 59.0898 144.043 59.293C144.355 59.4961 144.762 59.5977 145.262 59.5977ZM152 55.7891V55.543C152 54.6133 152.133 53.7578 152.398 52.9766C152.664 52.1875 153.051 51.5039 153.559 50.9258C154.066 50.3477 154.691 49.8984 155.434 49.5781C156.176 49.25 157.027 49.0859 157.988 49.0859C158.949 49.0859 159.805 49.25 160.555 49.5781C161.305 49.8984 161.934 50.3477 162.441 50.9258C162.957 51.5039 163.348 52.1875 163.613 52.9766C163.879 53.7578 164.012 54.6133 164.012 55.543V55.7891C164.012 56.7109 163.879 57.5664 163.613 58.3555C163.348 59.1367 162.957 59.8203 162.441 60.4062C161.934 60.9844 161.309 61.4336 160.566 61.7539C159.824 62.0742 158.973 62.2344 158.012 62.2344C157.051 62.2344 156.195 62.0742 155.445 61.7539C154.703 61.4336 154.074 60.9844 153.559 60.4062C153.051 59.8203 152.664 59.1367 152.398 58.3555C152.133 57.5664 152 56.7109 152 55.7891ZM155.375 55.543V55.7891C155.375 56.3203 155.422 56.8164 155.516 57.2773C155.609 57.7383 155.758 58.1445 155.961 58.4961C156.172 58.8398 156.445 59.1094 156.781 59.3047C157.117 59.5 157.527 59.5977 158.012 59.5977C158.48 59.5977 158.883 59.5 159.219 59.3047C159.555 59.1094 159.824 58.8398 160.027 58.4961C160.23 58.1445 160.379 57.7383 160.473 57.2773C160.574 56.8164 160.625 56.3203 160.625 55.7891V55.543C160.625 55.0273 160.574 54.543 160.473 54.0898C160.379 53.6289 160.227 53.2227 160.016 52.8711C159.812 52.5117 159.543 52.2305 159.207 52.0273C158.871 51.8242 158.465 51.7227 157.988 51.7227C157.512 51.7227 157.105 51.8242 156.77 52.0273C156.441 52.2305 156.172 52.5117 155.961 52.8711C155.758 53.2227 155.609 53.6289 155.516 54.0898C155.422 54.543 155.375 55.0273 155.375 55.543ZM169.461 52.0859V62H166.086V49.3203H169.262L169.461 52.0859ZM173.281 49.2383L173.223 52.3672C173.059 52.3438 172.859 52.3242 172.625 52.3086C172.398 52.2852 172.191 52.2734 172.004 52.2734C171.527 52.2734 171.113 52.3359 170.762 52.4609C170.418 52.5781 170.129 52.7539 169.895 52.9883C169.668 53.2227 169.496 53.5078 169.379 53.8438C169.27 54.1797 169.207 54.5625 169.191 54.9922L168.512 54.7812C168.512 53.9609 168.594 53.207 168.758 52.5195C168.922 51.8242 169.16 51.2188 169.473 50.7031C169.793 50.1875 170.184 49.7891 170.645 49.5078C171.105 49.2266 171.633 49.0859 172.227 49.0859C172.414 49.0859 172.605 49.1016 172.801 49.1328C172.996 49.1562 173.156 49.1914 173.281 49.2383ZM182.129 59.2344V44H185.527V62H182.469L182.129 59.2344ZM174.113 55.8125V55.5664C174.113 54.5977 174.223 53.7188 174.441 52.9297C174.66 52.1328 174.98 51.4492 175.402 50.8789C175.824 50.3086 176.344 49.8672 176.961 49.5547C177.578 49.2422 178.281 49.0859 179.07 49.0859C179.812 49.0859 180.461 49.2422 181.016 49.5547C181.578 49.8672 182.055 50.3125 182.445 50.8906C182.844 51.4609 183.164 52.1367 183.406 52.918C183.648 53.6914 183.824 54.5391 183.934 55.4609V56C183.824 56.8828 183.648 57.7031 183.406 58.4609C183.164 59.2188 182.844 59.8828 182.445 60.4531C182.055 61.0156 181.578 61.4531 181.016 61.7656C180.453 62.0781 179.797 62.2344 179.047 62.2344C178.258 62.2344 177.555 62.0742 176.938 61.7539C176.328 61.4336 175.812 60.9844 175.391 60.4062C174.977 59.8281 174.66 59.1484 174.441 58.3672C174.223 57.5859 174.113 56.7344 174.113 55.8125ZM177.488 55.5664V55.8125C177.488 56.3359 177.527 56.8242 177.605 57.2773C177.691 57.7305 177.828 58.1328 178.016 58.4844C178.211 58.8281 178.461 59.0977 178.766 59.293C179.078 59.4805 179.457 59.5742 179.902 59.5742C180.48 59.5742 180.957 59.4453 181.332 59.1875C181.707 58.9219 181.992 58.5586 182.188 58.0977C182.391 57.6367 182.508 57.1055 182.539 56.5039V54.9688C182.516 54.4766 182.445 54.0352 182.328 53.6445C182.219 53.2461 182.055 52.9062 181.836 52.625C181.625 52.3438 181.359 52.125 181.039 51.9688C180.727 51.8125 180.355 51.7344 179.926 51.7344C179.488 51.7344 179.113 51.8359 178.801 52.0391C178.488 52.2344 178.234 52.5039 178.039 52.8477C177.852 53.1914 177.711 53.5977 177.617 54.0664C177.531 54.5273 177.488 55.0273 177.488 55.5664ZM191.727 49.3203V62H188.34V49.3203H191.727ZM188.129 46.0156C188.129 45.5234 188.301 45.1172 188.645 44.7969C188.988 44.4766 189.449 44.3164 190.027 44.3164C190.598 44.3164 191.055 44.4766 191.398 44.7969C191.75 45.1172 191.926 45.5234 191.926 46.0156C191.926 46.5078 191.75 46.9141 191.398 47.2344C191.055 47.5547 190.598 47.7148 190.027 47.7148C189.449 47.7148 188.988 47.5547 188.645 47.2344C188.301 46.9141 188.129 46.5078 188.129 46.0156ZM198.078 44V62H194.691V44H198.078ZM204.629 60.5703L207.992 49.3203H211.613L206.516 63.9102C206.406 64.2305 206.258 64.5742 206.07 64.9414C205.891 65.3086 205.645 65.6562 205.332 65.9844C205.027 66.3203 204.641 66.5938 204.172 66.8047C203.711 67.0156 203.145 67.1211 202.473 67.1211C202.152 67.1211 201.891 67.1016 201.688 67.0625C201.484 67.0234 201.242 66.9688 200.961 66.8984V64.4258C201.047 64.4258 201.137 64.4258 201.23 64.4258C201.324 64.4336 201.414 64.4375 201.5 64.4375C201.945 64.4375 202.309 64.3867 202.59 64.2852C202.871 64.1836 203.098 64.0273 203.27 63.8164C203.441 63.6133 203.578 63.3477 203.68 63.0195L204.629 60.5703ZM203.223 49.3203L205.977 58.5078L206.457 62.082L204.16 62.3281L199.602 49.3203H203.223Z" fill="#888888"/>
<path d="M109.93 86.0078V118H102.217V86.0078H109.93ZM119.554 86.0078V91.9624H92.813V86.0078H119.554ZM132.012 118.439C130.079 118.439 128.35 118.139 126.827 117.539C125.303 116.923 124.014 116.081 122.959 115.012C121.919 113.942 121.121 112.712 120.564 111.32C120.022 109.929 119.751 108.457 119.751 106.904V106.069C119.751 104.326 119.993 102.714 120.477 101.235C120.96 99.7407 121.678 98.437 122.63 97.3237C123.582 96.2104 124.776 95.3462 126.211 94.731C127.647 94.1011 129.317 93.7861 131.221 93.7861C132.906 93.7861 134.415 94.0571 135.748 94.5991C137.081 95.1411 138.208 95.9175 139.131 96.9282C140.069 97.939 140.779 99.1621 141.263 100.598C141.761 102.033 142.01 103.645 142.01 105.432V108.442H122.586V103.806H134.781V103.234C134.795 102.443 134.656 101.77 134.363 101.213C134.085 100.656 133.675 100.231 133.133 99.9385C132.591 99.6455 131.932 99.499 131.155 99.499C130.35 99.499 129.683 99.6748 129.156 100.026C128.643 100.378 128.24 100.861 127.947 101.477C127.669 102.077 127.471 102.773 127.354 103.564C127.237 104.355 127.178 105.19 127.178 106.069V106.904C127.178 107.783 127.295 108.581 127.53 109.299C127.779 110.017 128.13 110.632 128.584 111.145C129.053 111.643 129.61 112.031 130.254 112.309C130.914 112.587 131.661 112.727 132.496 112.727C133.506 112.727 134.502 112.536 135.484 112.155C136.465 111.774 137.308 111.145 138.011 110.266L141.373 114.265C140.889 114.953 140.201 115.62 139.307 116.264C138.428 116.909 137.374 117.436 136.143 117.846C134.913 118.242 133.536 118.439 132.012 118.439ZM155.062 112.727C155.75 112.727 156.336 112.602 156.819 112.353C157.317 112.089 157.691 111.723 157.94 111.254C158.204 110.771 158.328 110.192 158.313 109.519H165.279C165.293 111.306 164.854 112.873 163.96 114.221C163.082 115.554 161.88 116.594 160.357 117.341C158.848 118.073 157.142 118.439 155.237 118.439C153.377 118.439 151.751 118.139 150.359 117.539C148.968 116.923 147.803 116.074 146.866 114.99C145.943 113.891 145.247 112.609 144.778 111.145C144.324 109.68 144.097 108.09 144.097 106.376V105.871C144.097 104.157 144.324 102.568 144.778 101.103C145.247 99.6235 145.943 98.3418 146.866 97.2578C147.803 96.1592 148.96 95.3096 150.337 94.709C151.729 94.0938 153.348 93.7861 155.193 93.7861C157.171 93.7861 158.914 94.1597 160.423 94.9067C161.946 95.6538 163.14 96.7378 164.004 98.1587C164.869 99.5796 165.293 101.301 165.279 103.322H158.313C158.328 102.604 158.218 101.96 157.984 101.389C157.75 100.817 157.383 100.363 156.885 100.026C156.402 99.6748 155.779 99.499 155.018 99.499C154.256 99.499 153.641 99.6675 153.172 100.004C152.703 100.341 152.344 100.81 152.095 101.411C151.861 101.997 151.7 102.67 151.612 103.432C151.539 104.194 151.502 105.007 151.502 105.871V106.376C151.502 107.255 151.539 108.083 151.612 108.859C151.7 109.621 151.868 110.295 152.117 110.881C152.366 111.452 152.725 111.906 153.194 112.243C153.663 112.565 154.285 112.727 155.062 112.727ZM175.694 84.25V118H168.289V84.25H175.694ZM174.815 105.3L173.079 105.344C173.079 103.674 173.284 102.136 173.694 100.729C174.104 99.3232 174.69 98.1001 175.452 97.0601C176.214 96.02 177.129 95.2144 178.199 94.6431C179.268 94.0718 180.455 93.7861 181.758 93.7861C182.93 93.7861 184 93.9546 184.966 94.2915C185.948 94.6284 186.79 95.1704 187.493 95.9175C188.211 96.6646 188.76 97.6387 189.141 98.8398C189.537 100.041 189.734 101.506 189.734 103.234V118H182.286V103.19C182.286 102.224 182.146 101.477 181.868 100.949C181.604 100.407 181.224 100.034 180.726 99.8286C180.228 99.6089 179.62 99.499 178.902 99.499C178.038 99.499 177.334 99.6455 176.792 99.9385C176.25 100.231 175.833 100.642 175.54 101.169C175.262 101.682 175.071 102.29 174.969 102.993C174.866 103.696 174.815 104.465 174.815 105.3ZM221.88 109.497C221.88 108.999 221.807 108.552 221.661 108.156C221.514 107.746 221.243 107.365 220.848 107.014C220.452 106.662 219.881 106.311 219.134 105.959C218.401 105.593 217.435 105.212 216.233 104.816C214.827 104.348 213.472 103.82 212.168 103.234C210.865 102.634 209.7 101.938 208.675 101.147C207.649 100.341 206.836 99.4038 206.236 98.3345C205.635 97.2505 205.335 95.9907 205.335 94.5552C205.335 93.1782 205.643 91.9404 206.258 90.8418C206.873 89.7285 207.73 88.7837 208.829 88.0073C209.942 87.2163 211.246 86.6157 212.74 86.2056C214.234 85.7808 215.867 85.5684 217.64 85.5684C219.983 85.5684 222.049 85.9785 223.836 86.7988C225.638 87.6045 227.044 88.7544 228.055 90.2485C229.08 91.728 229.593 93.4785 229.593 95.5H221.924C221.924 94.6943 221.756 93.9839 221.419 93.3687C221.097 92.7534 220.606 92.27 219.947 91.9185C219.288 91.5669 218.46 91.3911 217.464 91.3911C216.497 91.3911 215.684 91.5376 215.025 91.8306C214.366 92.1235 213.868 92.519 213.531 93.0171C213.194 93.5005 213.025 94.0352 213.025 94.6211C213.025 95.1045 213.157 95.5439 213.421 95.9395C213.699 96.3203 214.087 96.6792 214.585 97.0161C215.098 97.353 215.713 97.6753 216.431 97.9829C217.164 98.2905 217.984 98.5908 218.892 98.8838C220.591 99.4258 222.1 100.034 223.418 100.708C224.751 101.367 225.872 102.121 226.78 102.971C227.703 103.806 228.399 104.758 228.868 105.827C229.351 106.896 229.593 108.105 229.593 109.453C229.593 110.888 229.314 112.163 228.758 113.276C228.201 114.389 227.403 115.334 226.363 116.11C225.323 116.872 224.078 117.451 222.627 117.846C221.177 118.242 219.559 118.439 217.771 118.439C216.131 118.439 214.512 118.234 212.916 117.824C211.333 117.399 209.898 116.755 208.609 115.891C207.32 115.012 206.287 113.891 205.511 112.529C204.749 111.152 204.368 109.519 204.368 107.629H212.103C212.103 108.566 212.227 109.357 212.476 110.002C212.725 110.646 213.091 111.167 213.575 111.562C214.058 111.943 214.651 112.221 215.354 112.397C216.058 112.558 216.863 112.639 217.771 112.639C218.753 112.639 219.544 112.5 220.145 112.221C220.745 111.928 221.185 111.547 221.463 111.079C221.741 110.595 221.88 110.068 221.88 109.497ZM245.743 94.2256V99.3672H231.417V94.2256H245.743ZM234.427 88.3149H241.832V110.244C241.832 110.874 241.905 111.364 242.051 111.716C242.198 112.053 242.447 112.294 242.798 112.441C243.165 112.573 243.648 112.639 244.249 112.639C244.673 112.639 245.025 112.631 245.303 112.617C245.582 112.587 245.845 112.551 246.094 112.507V117.802C245.464 118.007 244.805 118.161 244.117 118.264C243.428 118.381 242.696 118.439 241.919 118.439C240.337 118.439 238.982 118.19 237.854 117.692C236.741 117.194 235.892 116.411 235.306 115.341C234.72 114.272 234.427 112.88 234.427 111.167V88.3149ZM261.036 112.023V102.224C261.036 101.55 260.94 100.971 260.75 100.488C260.56 100.004 260.259 99.6309 259.849 99.3672C259.439 99.0889 258.89 98.9497 258.201 98.9497C257.645 98.9497 257.168 99.0449 256.773 99.2354C256.377 99.4258 256.077 99.7114 255.872 100.092C255.667 100.473 255.564 100.957 255.564 101.542H248.16C248.16 100.444 248.401 99.4258 248.885 98.4883C249.383 97.5361 250.086 96.7085 250.994 96.0054C251.917 95.3022 253.016 94.7603 254.29 94.3794C255.579 93.9839 257.015 93.7861 258.597 93.7861C260.486 93.7861 262.171 94.1011 263.65 94.731C265.145 95.3608 266.324 96.3057 267.188 97.5654C268.052 98.8105 268.484 100.378 268.484 102.268V112.001C268.484 113.554 268.572 114.733 268.748 115.539C268.924 116.33 269.173 117.026 269.495 117.626V118H262.068C261.717 117.268 261.453 116.374 261.277 115.319C261.116 114.25 261.036 113.151 261.036 112.023ZM261.937 103.476L261.98 107.431H258.707C258.018 107.431 257.432 107.526 256.949 107.717C256.48 107.907 256.099 108.171 255.806 108.508C255.528 108.83 255.323 109.196 255.191 109.606C255.074 110.017 255.015 110.449 255.015 110.903C255.015 111.342 255.118 111.738 255.323 112.089C255.542 112.426 255.835 112.69 256.202 112.88C256.568 113.071 256.978 113.166 257.432 113.166C258.252 113.166 258.948 113.012 259.52 112.705C260.105 112.382 260.552 111.994 260.86 111.54C261.167 111.086 261.321 110.661 261.321 110.266L262.947 113.298C262.654 113.884 262.317 114.477 261.937 115.078C261.57 115.678 261.109 116.235 260.552 116.748C260.01 117.246 259.344 117.656 258.553 117.978C257.762 118.286 256.802 118.439 255.674 118.439C254.209 118.439 252.862 118.139 251.631 117.539C250.416 116.938 249.441 116.103 248.709 115.034C247.977 113.95 247.61 112.705 247.61 111.298C247.61 110.068 247.83 108.969 248.27 108.002C248.724 107.036 249.405 106.215 250.313 105.542C251.221 104.868 252.378 104.355 253.785 104.003C255.191 103.652 256.846 103.476 258.75 103.476H261.937ZM282.635 112.727C283.323 112.727 283.909 112.602 284.393 112.353C284.891 112.089 285.264 111.723 285.513 111.254C285.777 110.771 285.901 110.192 285.887 109.519H292.852C292.867 111.306 292.427 112.873 291.534 114.221C290.655 115.554 289.454 116.594 287.93 117.341C286.421 118.073 284.715 118.439 282.811 118.439C280.95 118.439 279.324 118.139 277.933 117.539C276.541 116.923 275.376 116.074 274.439 114.99C273.516 113.891 272.82 112.609 272.352 111.145C271.897 109.68 271.67 108.09 271.67 106.376V105.871C271.67 104.157 271.897 102.568 272.352 101.103C272.82 99.6235 273.516 98.3418 274.439 97.2578C275.376 96.1592 276.534 95.3096 277.911 94.709C279.302 94.0938 280.921 93.7861 282.767 93.7861C284.744 93.7861 286.487 94.1597 287.996 94.9067C289.52 95.6538 290.713 96.7378 291.578 98.1587C292.442 99.5796 292.867 101.301 292.852 103.322H285.887C285.901 102.604 285.792 101.96 285.557 101.389C285.323 100.817 284.957 100.363 284.458 100.026C283.975 99.6748 283.353 99.499 282.591 99.499C281.829 99.499 281.214 99.6675 280.745 100.004C280.276 100.341 279.917 100.81 279.668 101.411C279.434 101.997 279.273 102.67 279.185 103.432C279.112 104.194 279.075 105.007 279.075 105.871V106.376C279.075 107.255 279.112 108.083 279.185 108.859C279.273 109.621 279.441 110.295 279.69 110.881C279.939 111.452 280.298 111.906 280.767 112.243C281.236 112.565 281.858 112.727 282.635 112.727ZM303.487 84.228V118H296.082V84.228H303.487ZM318.692 94.2256L308.365 106.333L302.959 111.738L299.729 107.036L304.234 101.169L309.815 94.2256H318.692ZM310.76 118L304.41 107.167L309.881 103.278L319.241 118H310.76Z" fill="#424241"/>
<path d="M1363 15C1363 6.71573 1356.28 0 1348 0H1134V167H1348C1356.28 167 1363 160.284 1363 152V15Z" fill="#C01A56"/>
<path fill-rule="evenodd" clip-rule="evenodd" d="M1218.5 55C1218.37 55 1218.24 55.0527 1218.15 55.1464C1218.05 55.2402 1218 55.3674 1218 55.5V111.5C1218 111.633 1218.05 111.76 1218.15 111.854C1218.24 111.947 1218.37 112 1218.5 112H1278C1278.13 112 1278.26 111.947 1278.35 111.854C1278.45 111.76 1278.5 111.633 1278.5 111.5V66C1278.5 65.8674 1278.45 65.7402 1278.35 65.6464C1278.26 65.5527 1278.13 65.5 1278 65.5H1248.25C1247.36 65.5 1246.52 65.1045 1245.95 64.4206L1238.09 55H1218.5ZM1213.9 50.9038C1215.12 49.6848 1216.78 49 1218.5 49H1239.5C1240.39 49 1241.23 49.3955 1241.8 50.0794L1249.66 59.5H1278C1279.72 59.5 1281.38 60.1848 1282.6 61.4038C1283.82 62.6228 1284.5 64.2761 1284.5 66V111.5C1284.5 113.224 1283.82 114.877 1282.6 116.096C1281.38 117.315 1279.72 118 1278 118H1218.5C1216.78 118 1215.12 117.315 1213.9 116.096C1212.68 114.877 1212 113.224 1212 111.5V55.5C1212 53.7761 1212.68 52.1228 1213.9 50.9038Z" fill="white"/>
<path fill-rule="evenodd" clip-rule="evenodd" d="M1243.72 77.5251C1245.09 78.892 1245.09 81.108 1243.72 82.4749L1237.45 88.75L1243.72 95.0251C1245.09 96.392 1245.09 98.608 1243.72 99.9749C1242.36 101.342 1240.14 101.342 1238.78 99.9749L1230.03 91.2249C1228.66 89.858 1228.66 87.642 1230.03 86.2751L1238.78 77.5251C1240.14 76.1583 1242.36 76.1583 1243.72 77.5251Z" fill="white"/>
<path fill-rule="evenodd" clip-rule="evenodd" d="M1252.03 99.9749C1250.66 98.608 1250.66 96.392 1252.03 95.0251L1258.3 88.75L1252.03 82.4749C1250.66 81.108 1250.66 78.892 1252.03 77.5251C1253.39 76.1583 1255.61 76.1583 1256.97 77.5251L1265.72 86.2751C1267.09 87.642 1267.09 89.858 1265.72 91.2249L1256.97 99.9749C1255.61 101.342 1253.39 101.342 1252.03 99.9749Z" fill="white"/>
</svg>
