<svg width="1363" height="167" viewBox="0 0 1363 167" fill="none" xmlns="http://www.w3.org/2000/svg">
<rect width="1363" height="167" rx="15" fill="#F0F0F0"/>
<path d="M0 15C0 6.71573 6.71573 0 15 0H37V167H15C6.71573 167 0 160.284 0 152V15Z" fill="#424241"/>
<path d="M100.906 50.9219L93.3945 48.2383V45.0859L103.602 49.375V51.6367L100.906 50.9219ZM93.3945 53.1719L100.918 50.4297L103.602 49.7852V52.0352L93.3945 56.3242V53.1719ZM111.898 40.9375H118.262C119.566 40.9375 120.688 41.1328 121.625 41.5234C122.57 41.9141 123.297 42.4922 123.805 43.2578C124.312 44.0234 124.566 44.9648 124.566 46.082C124.566 46.9961 124.41 47.7812 124.098 48.4375C123.793 49.0859 123.359 49.6289 122.797 50.0664C122.242 50.4961 121.59 50.8398 120.84 51.0977L119.727 51.6836H114.195L114.172 48.9414H118.285C118.902 48.9414 119.414 48.832 119.82 48.6133C120.227 48.3945 120.531 48.0898 120.734 47.6992C120.945 47.3086 121.051 46.8555 121.051 46.3398C121.051 45.793 120.949 45.3203 120.746 44.9219C120.543 44.5234 120.234 44.2188 119.82 44.0078C119.406 43.7969 118.887 43.6914 118.262 43.6914H115.414V58H111.898V40.9375ZM121.438 58L117.547 50.3945L121.262 50.3711L125.199 57.8359V58H121.438ZM132.898 58.2344C131.914 58.2344 131.031 58.0781 130.25 57.7656C129.469 57.4453 128.805 57.0039 128.258 56.4414C127.719 55.8789 127.305 55.2266 127.016 54.4844C126.727 53.7344 126.582 52.9375 126.582 52.0938V51.625C126.582 50.6641 126.719 49.7852 126.992 48.9883C127.266 48.1914 127.656 47.5 128.164 46.9141C128.68 46.3281 129.305 45.8789 130.039 45.5664C130.773 45.2461 131.602 45.0859 132.523 45.0859C133.422 45.0859 134.219 45.2344 134.914 45.5312C135.609 45.8281 136.191 46.25 136.66 46.7969C137.137 47.3438 137.496 48 137.738 48.7656C137.98 49.5234 138.102 50.3672 138.102 51.2969V52.7031H128.023V50.4531H134.785V50.1953C134.785 49.7266 134.699 49.3086 134.527 48.9414C134.363 48.5664 134.113 48.2695 133.777 48.0508C133.441 47.832 133.012 47.7227 132.488 47.7227C132.043 47.7227 131.66 47.8203 131.34 48.0156C131.02 48.2109 130.758 48.4844 130.555 48.8359C130.359 49.1875 130.211 49.6016 130.109 50.0781C130.016 50.5469 129.969 51.0625 129.969 51.625V52.0938C129.969 52.6016 130.039 53.0703 130.18 53.5C130.328 53.9297 130.535 54.3008 130.801 54.6133C131.074 54.9258 131.402 55.168 131.785 55.3398C132.176 55.5117 132.617 55.5977 133.109 55.5977C133.719 55.5977 134.285 55.4805 134.809 55.2461C135.34 55.0039 135.797 54.6406 136.18 54.1562L137.82 55.9375C137.555 56.3203 137.191 56.6875 136.73 57.0391C136.277 57.3906 135.73 57.6797 135.09 57.9062C134.449 58.125 133.719 58.2344 132.898 58.2344ZM145.262 55.5977C145.676 55.5977 146.043 55.5195 146.363 55.3633C146.684 55.1992 146.934 54.9727 147.113 54.6836C147.301 54.3867 147.398 54.0391 147.406 53.6406H150.582C150.574 54.5312 150.336 55.3242 149.867 56.0195C149.398 56.707 148.77 57.25 147.98 57.6484C147.191 58.0391 146.309 58.2344 145.332 58.2344C144.348 58.2344 143.488 58.0703 142.754 57.7422C142.027 57.4141 141.422 56.9609 140.938 56.3828C140.453 55.7969 140.09 55.1172 139.848 54.3438C139.605 53.5625 139.484 52.7266 139.484 51.8359V51.4961C139.484 50.5977 139.605 49.7617 139.848 48.9883C140.09 48.207 140.453 47.5273 140.938 46.9492C141.422 46.3633 142.027 45.9062 142.754 45.5781C143.48 45.25 144.332 45.0859 145.309 45.0859C146.348 45.0859 147.258 45.2852 148.039 45.6836C148.828 46.082 149.445 46.6523 149.891 47.3945C150.344 48.1289 150.574 49 150.582 50.0078H147.406C147.398 49.5859 147.309 49.2031 147.137 48.8594C146.973 48.5156 146.73 48.2422 146.41 48.0391C146.098 47.8281 145.711 47.7227 145.25 47.7227C144.758 47.7227 144.355 47.8281 144.043 48.0391C143.73 48.2422 143.488 48.5234 143.316 48.8828C143.145 49.2344 143.023 49.6367 142.953 50.0898C142.891 50.5352 142.859 51.0039 142.859 51.4961V51.8359C142.859 52.3281 142.891 52.8008 142.953 53.2539C143.016 53.707 143.133 54.1094 143.305 54.4609C143.484 54.8125 143.73 55.0898 144.043 55.293C144.355 55.4961 144.762 55.5977 145.262 55.5977ZM152 51.7891V51.543C152 50.6133 152.133 49.7578 152.398 48.9766C152.664 48.1875 153.051 47.5039 153.559 46.9258C154.066 46.3477 154.691 45.8984 155.434 45.5781C156.176 45.25 157.027 45.0859 157.988 45.0859C158.949 45.0859 159.805 45.25 160.555 45.5781C161.305 45.8984 161.934 46.3477 162.441 46.9258C162.957 47.5039 163.348 48.1875 163.613 48.9766C163.879 49.7578 164.012 50.6133 164.012 51.543V51.7891C164.012 52.7109 163.879 53.5664 163.613 54.3555C163.348 55.1367 162.957 55.8203 162.441 56.4062C161.934 56.9844 161.309 57.4336 160.566 57.7539C159.824 58.0742 158.973 58.2344 158.012 58.2344C157.051 58.2344 156.195 58.0742 155.445 57.7539C154.703 57.4336 154.074 56.9844 153.559 56.4062C153.051 55.8203 152.664 55.1367 152.398 54.3555C152.133 53.5664 152 52.7109 152 51.7891ZM155.375 51.543V51.7891C155.375 52.3203 155.422 52.8164 155.516 53.2773C155.609 53.7383 155.758 54.1445 155.961 54.4961C156.172 54.8398 156.445 55.1094 156.781 55.3047C157.117 55.5 157.527 55.5977 158.012 55.5977C158.48 55.5977 158.883 55.5 159.219 55.3047C159.555 55.1094 159.824 54.8398 160.027 54.4961C160.23 54.1445 160.379 53.7383 160.473 53.2773C160.574 52.8164 160.625 52.3203 160.625 51.7891V51.543C160.625 51.0273 160.574 50.543 160.473 50.0898C160.379 49.6289 160.227 49.2227 160.016 48.8711C159.812 48.5117 159.543 48.2305 159.207 48.0273C158.871 47.8242 158.465 47.7227 157.988 47.7227C157.512 47.7227 157.105 47.8242 156.77 48.0273C156.441 48.2305 156.172 48.5117 155.961 48.8711C155.758 49.2227 155.609 49.6289 155.516 50.0898C155.422 50.543 155.375 51.0273 155.375 51.543ZM169.461 48.0859V58H166.086V45.3203H169.262L169.461 48.0859ZM173.281 45.2383L173.223 48.3672C173.059 48.3438 172.859 48.3242 172.625 48.3086C172.398 48.2852 172.191 48.2734 172.004 48.2734C171.527 48.2734 171.113 48.3359 170.762 48.4609C170.418 48.5781 170.129 48.7539 169.895 48.9883C169.668 49.2227 169.496 49.5078 169.379 49.8438C169.27 50.1797 169.207 50.5625 169.191 50.9922L168.512 50.7812C168.512 49.9609 168.594 49.207 168.758 48.5195C168.922 47.8242 169.16 47.2188 169.473 46.7031C169.793 46.1875 170.184 45.7891 170.645 45.5078C171.105 45.2266 171.633 45.0859 172.227 45.0859C172.414 45.0859 172.605 45.1016 172.801 45.1328C172.996 45.1562 173.156 45.1914 173.281 45.2383ZM182.129 55.2344V40H185.527V58H182.469L182.129 55.2344ZM174.113 51.8125V51.5664C174.113 50.5977 174.223 49.7188 174.441 48.9297C174.66 48.1328 174.98 47.4492 175.402 46.8789C175.824 46.3086 176.344 45.8672 176.961 45.5547C177.578 45.2422 178.281 45.0859 179.07 45.0859C179.812 45.0859 180.461 45.2422 181.016 45.5547C181.578 45.8672 182.055 46.3125 182.445 46.8906C182.844 47.4609 183.164 48.1367 183.406 48.918C183.648 49.6914 183.824 50.5391 183.934 51.4609V52C183.824 52.8828 183.648 53.7031 183.406 54.4609C183.164 55.2188 182.844 55.8828 182.445 56.4531C182.055 57.0156 181.578 57.4531 181.016 57.7656C180.453 58.0781 179.797 58.2344 179.047 58.2344C178.258 58.2344 177.555 58.0742 176.938 57.7539C176.328 57.4336 175.812 56.9844 175.391 56.4062C174.977 55.8281 174.66 55.1484 174.441 54.3672C174.223 53.5859 174.113 52.7344 174.113 51.8125ZM177.488 51.5664V51.8125C177.488 52.3359 177.527 52.8242 177.605 53.2773C177.691 53.7305 177.828 54.1328 178.016 54.4844C178.211 54.8281 178.461 55.0977 178.766 55.293C179.078 55.4805 179.457 55.5742 179.902 55.5742C180.48 55.5742 180.957 55.4453 181.332 55.1875C181.707 54.9219 181.992 54.5586 182.188 54.0977C182.391 53.6367 182.508 53.1055 182.539 52.5039V50.9688C182.516 50.4766 182.445 50.0352 182.328 49.6445C182.219 49.2461 182.055 48.9062 181.836 48.625C181.625 48.3438 181.359 48.125 181.039 47.9688C180.727 47.8125 180.355 47.7344 179.926 47.7344C179.488 47.7344 179.113 47.8359 178.801 48.0391C178.488 48.2344 178.234 48.5039 178.039 48.8477C177.852 49.1914 177.711 49.5977 177.617 50.0664C177.531 50.5273 177.488 51.0273 177.488 51.5664ZM191.727 45.3203V58H188.34V45.3203H191.727ZM188.129 42.0156C188.129 41.5234 188.301 41.1172 188.645 40.7969C188.988 40.4766 189.449 40.3164 190.027 40.3164C190.598 40.3164 191.055 40.4766 191.398 40.7969C191.75 41.1172 191.926 41.5234 191.926 42.0156C191.926 42.5078 191.75 42.9141 191.398 43.2344C191.055 43.5547 190.598 43.7148 190.027 43.7148C189.449 43.7148 188.988 43.5547 188.645 43.2344C188.301 42.9141 188.129 42.5078 188.129 42.0156ZM198.078 40V58H194.691V40H198.078ZM204.629 56.5703L207.992 45.3203H211.613L206.516 59.9102C206.406 60.2305 206.258 60.5742 206.07 60.9414C205.891 61.3086 205.645 61.6562 205.332 61.9844C205.027 62.3203 204.641 62.5938 204.172 62.8047C203.711 63.0156 203.145 63.1211 202.473 63.1211C202.152 63.1211 201.891 63.1016 201.688 63.0625C201.484 63.0234 201.242 62.9688 200.961 62.8984V60.4258C201.047 60.4258 201.137 60.4258 201.23 60.4258C201.324 60.4336 201.414 60.4375 201.5 60.4375C201.945 60.4375 202.309 60.3867 202.59 60.2852C202.871 60.1836 203.098 60.0273 203.27 59.8164C203.441 59.6133 203.578 59.3477 203.68 59.0195L204.629 56.5703ZM203.223 45.3203L205.977 54.5078L206.457 58.082L204.16 58.3281L199.602 45.3203H203.223Z" fill="#888888"/>
<path d="M115.994 98.708V104.641H99.5806V98.708H115.994ZM102.151 86.0078V118H94.439V86.0078H102.151ZM121.18 86.0078V118H113.489V86.0078H121.18ZM124.805 106.354V105.893C124.805 104.15 125.054 102.546 125.552 101.081C126.05 99.6016 126.783 98.3198 127.75 97.2358C128.716 96.1519 129.91 95.3096 131.331 94.709C132.752 94.0938 134.393 93.7861 136.253 93.7861C138.128 93.7861 139.776 94.0938 141.197 94.709C142.632 95.3096 143.833 96.1519 144.8 97.2358C145.767 98.3198 146.5 99.6016 146.998 101.081C147.496 102.546 147.745 104.15 147.745 105.893V106.354C147.745 108.083 147.496 109.687 146.998 111.167C146.5 112.631 145.767 113.913 144.8 115.012C143.833 116.096 142.64 116.938 141.219 117.539C139.798 118.139 138.157 118.439 136.297 118.439C134.437 118.439 132.789 118.139 131.353 117.539C129.917 116.938 128.716 116.096 127.75 115.012C126.783 113.913 126.05 112.631 125.552 111.167C125.054 109.687 124.805 108.083 124.805 106.354ZM132.21 105.893V106.354C132.21 107.248 132.276 108.083 132.408 108.859C132.54 109.636 132.759 110.317 133.067 110.903C133.375 111.474 133.792 111.921 134.319 112.243C134.847 112.565 135.506 112.727 136.297 112.727C137.073 112.727 137.718 112.565 138.23 112.243C138.758 111.921 139.175 111.474 139.483 110.903C139.791 110.317 140.01 109.636 140.142 108.859C140.274 108.083 140.34 107.248 140.34 106.354V105.893C140.34 105.029 140.274 104.216 140.142 103.454C140.01 102.678 139.791 101.997 139.483 101.411C139.175 100.81 138.758 100.341 138.23 100.004C137.703 99.6675 137.044 99.499 136.253 99.499C135.477 99.499 134.825 99.6675 134.297 100.004C133.785 100.341 133.375 100.81 133.067 101.411C132.759 101.997 132.54 102.678 132.408 103.454C132.276 104.216 132.21 105.029 132.21 105.893ZM158.27 110.925L162.664 94.2256H167.3L165.652 102.597L161.302 118H157.588L158.27 110.925ZM156.534 94.2256L159.258 110.793L159.566 118H155.062L149.437 94.2256H156.534ZM171.211 110.441L173.958 94.2256H181.055L175.474 118H170.97L171.211 110.441ZM167.828 94.2256L172.266 110.881L172.947 118H169.19L164.927 102.641L163.345 94.2256H167.828ZM209.466 86.0078V118H201.753V86.0078H209.466ZM219.09 86.0078V91.9624H192.349V86.0078H219.09ZM216.475 106.354V105.893C216.475 104.15 216.724 102.546 217.222 101.081C217.72 99.6016 218.453 98.3198 219.419 97.2358C220.386 96.1519 221.58 95.3096 223.001 94.709C224.422 94.0938 226.062 93.7861 227.923 93.7861C229.798 93.7861 231.446 94.0938 232.867 94.709C234.302 95.3096 235.503 96.1519 236.47 97.2358C237.437 98.3198 238.169 99.6016 238.667 101.081C239.166 102.546 239.415 104.15 239.415 105.893V106.354C239.415 108.083 239.166 109.687 238.667 111.167C238.169 112.631 237.437 113.913 236.47 115.012C235.503 116.096 234.31 116.938 232.889 117.539C231.468 118.139 229.827 118.439 227.967 118.439C226.106 118.439 224.458 118.139 223.023 117.539C221.587 116.938 220.386 116.096 219.419 115.012C218.453 113.913 217.72 112.631 217.222 111.167C216.724 109.687 216.475 108.083 216.475 106.354ZM223.88 105.893V106.354C223.88 107.248 223.946 108.083 224.078 108.859C224.209 109.636 224.429 110.317 224.737 110.903C225.044 111.474 225.462 111.921 225.989 112.243C226.517 112.565 227.176 112.727 227.967 112.727C228.743 112.727 229.388 112.565 229.9 112.243C230.428 111.921 230.845 111.474 231.153 110.903C231.46 110.317 231.68 109.636 231.812 108.859C231.944 108.083 232.01 107.248 232.01 106.354V105.893C232.01 105.029 231.944 104.216 231.812 103.454C231.68 102.678 231.46 101.997 231.153 101.411C230.845 100.81 230.428 100.341 229.9 100.004C229.373 99.6675 228.714 99.499 227.923 99.499C227.146 99.499 226.495 99.6675 225.967 100.004C225.455 100.341 225.044 100.81 224.737 101.411C224.429 101.997 224.209 102.678 224.078 103.454C223.946 104.216 223.88 105.029 223.88 105.893ZM254.268 86.0078H266.858C269.319 86.0078 271.458 86.374 273.274 87.1064C275.091 87.8389 276.49 88.9229 277.471 90.3584C278.467 91.7939 278.965 93.5664 278.965 95.6758C278.965 97.5068 278.68 99.0376 278.108 100.268C277.537 101.499 276.739 102.517 275.713 103.322C274.703 104.113 273.523 104.765 272.176 105.278L269.649 106.706H259.08L259.036 100.751H266.858C267.84 100.751 268.653 100.576 269.297 100.224C269.942 99.8726 270.425 99.3745 270.748 98.73C271.084 98.0708 271.253 97.2871 271.253 96.3789C271.253 95.4561 271.084 94.665 270.748 94.0059C270.411 93.3467 269.913 92.8413 269.253 92.4897C268.609 92.1382 267.811 91.9624 266.858 91.9624H261.98V118H254.268V86.0078ZM271.78 118L264.705 103.85L272.879 103.806L280.042 117.67V118H271.78ZM297.159 112.221V94.2256H304.585V118H297.642L297.159 112.221ZM297.862 107.387L299.795 107.343C299.795 108.94 299.605 110.419 299.224 111.782C298.843 113.129 298.279 114.301 297.532 115.297C296.8 116.293 295.892 117.07 294.808 117.626C293.738 118.168 292.5 118.439 291.094 118.439C289.922 118.439 288.846 118.278 287.864 117.956C286.897 117.619 286.062 117.099 285.359 116.396C284.656 115.678 284.107 114.763 283.711 113.649C283.331 112.521 283.14 111.174 283.14 109.606V94.2256H290.545V109.65C290.545 110.178 290.611 110.632 290.743 111.013C290.875 111.394 291.065 111.716 291.314 111.979C291.563 112.229 291.871 112.419 292.237 112.551C292.618 112.668 293.05 112.727 293.533 112.727C294.646 112.727 295.518 112.492 296.148 112.023C296.778 111.555 297.217 110.917 297.466 110.112C297.73 109.306 297.862 108.398 297.862 107.387ZM315.945 99.3013V118H308.541V94.2256H315.484L315.945 99.3013ZM315.066 105.3L313.331 105.344C313.331 103.527 313.55 101.909 313.99 100.488C314.429 99.0522 315.052 97.8364 315.857 96.8403C316.663 95.8442 317.623 95.0898 318.736 94.5771C319.864 94.0498 321.116 93.7861 322.493 93.7861C323.592 93.7861 324.595 93.9473 325.503 94.2695C326.426 94.5918 327.217 95.1118 327.876 95.8296C328.55 96.5474 329.063 97.4995 329.415 98.686C329.781 99.8579 329.964 101.308 329.964 103.037V118H322.515V103.015C322.515 102.062 322.383 101.337 322.12 100.839C321.856 100.327 321.475 99.9751 320.977 99.7847C320.479 99.5942 319.871 99.499 319.153 99.499C318.392 99.499 317.747 99.6455 317.22 99.9385C316.692 100.231 316.268 100.642 315.945 101.169C315.638 101.682 315.411 102.29 315.264 102.993C315.132 103.696 315.066 104.465 315.066 105.3ZM345.85 107.871H339.544C339.544 106.582 339.632 105.446 339.808 104.465C339.998 103.469 340.32 102.575 340.774 101.784C341.229 100.993 341.844 100.261 342.62 99.5869C343.309 99.0156 343.902 98.4663 344.4 97.939C344.898 97.4116 345.279 96.877 345.542 96.335C345.806 95.793 345.938 95.2144 345.938 94.5991C345.938 93.8374 345.828 93.2148 345.608 92.7314C345.403 92.248 345.088 91.8892 344.664 91.6548C344.253 91.4058 343.733 91.2812 343.104 91.2812C342.591 91.2812 342.107 91.4058 341.653 91.6548C341.214 91.9038 340.855 92.292 340.577 92.8193C340.298 93.332 340.145 94.0132 340.115 94.8628H332.667C332.71 92.6802 333.194 90.9077 334.117 89.5454C335.054 88.1685 336.299 87.165 337.852 86.5352C339.419 85.8906 341.17 85.5684 343.104 85.5684C345.242 85.5684 347.081 85.8979 348.619 86.5571C350.157 87.2163 351.336 88.1978 352.156 89.5015C352.977 90.7905 353.387 92.3799 353.387 94.2695C353.387 95.5293 353.145 96.6279 352.662 97.5654C352.193 98.4883 351.556 99.3525 350.75 100.158C349.959 100.949 349.073 101.799 348.091 102.707C347.242 103.454 346.663 104.216 346.355 104.992C346.048 105.754 345.879 106.713 345.85 107.871ZM338.643 114.55C338.643 113.496 339.024 112.617 339.786 111.914C340.547 111.196 341.536 110.837 342.752 110.837C343.968 110.837 344.957 111.196 345.718 111.914C346.48 112.617 346.861 113.496 346.861 114.55C346.861 115.605 346.48 116.491 345.718 117.209C344.957 117.912 343.968 118.264 342.752 118.264C341.536 118.264 340.547 117.912 339.786 117.209C339.024 116.491 338.643 115.605 338.643 114.55Z" fill="#424241"/>
<path d="M1363 15C1363 6.71573 1356.28 0 1348 0H1134V167H1348C1356.28 167 1363 160.284 1363 152V15Z" fill="#C01A56"/>
<path d="M1260.77 81.3079C1263.96 81.3079 1267.09 82.2553 1269.74 84.0303C1272.4 85.8053 1274.47 88.3282 1275.69 91.2799C1276.92 94.2316 1277.24 97.4796 1276.61 100.613C1275.99 103.747 1274.45 106.625 1272.19 108.884C1269.93 111.143 1267.05 112.682 1263.92 113.305C1260.79 113.928 1257.54 113.608 1254.59 112.386C1251.64 111.163 1249.11 109.093 1247.34 106.436C1245.56 103.78 1244.62 100.657 1244.62 97.4617C1244.62 93.1774 1246.32 89.0686 1249.35 86.0392C1252.38 83.0098 1256.48 81.3079 1260.77 81.3079ZM1260.77 75.9233C1256.51 75.9233 1252.35 77.1865 1248.8 79.5532C1245.26 81.9198 1242.5 85.2837 1240.87 89.2193C1239.24 93.1549 1238.81 97.4856 1239.64 101.664C1240.48 105.842 1242.53 109.679 1245.54 112.692C1248.55 115.704 1252.39 117.755 1256.57 118.586C1260.75 119.417 1265.08 118.991 1269.01 117.361C1272.95 115.73 1276.31 112.97 1278.68 109.428C1281.04 105.886 1282.31 101.722 1282.31 97.4617C1282.31 91.7493 1280.04 86.271 1276 82.2317C1271.96 78.1925 1266.48 75.9233 1260.77 75.9233Z" fill="white"/>
<path d="M1274.23 49H1220.38C1218.96 49 1217.59 49.5673 1216.58 50.5771C1215.57 51.5869 1215 52.9565 1215 54.3846V108.231C1215 109.659 1215.57 111.028 1216.58 112.038C1217.59 113.048 1218.96 113.615 1220.38 113.615H1231.15V108.231H1220.38V70.5384H1279.62V54.3846C1279.62 52.9565 1279.05 51.5869 1278.04 50.5771C1277.03 49.5673 1275.66 49 1274.23 49ZM1220.38 65.1538V54.3846H1274.23V65.1538H1220.38Z" fill="white"/>
<path d="M1255.38 89.3849V105.539L1268.85 97.4618L1255.38 89.3849Z" fill="white"/>
</svg>
