<svg width="1363" height="301" viewBox="0 0 1363 301" fill="none" xmlns="http://www.w3.org/2000/svg">
<rect width="1363" height="301" rx="15" fill="#F0F0F0"/>
<path d="M0 15C0 6.71573 6.71573 0 15 0H37V301H15C6.71573 301 0 294.284 0 286V15Z" fill="#C01A56"/>
<path d="M94.981 104.898H110.369C113.377 104.898 115.991 105.346 118.211 106.241C120.431 107.136 122.141 108.461 123.34 110.216C124.558 111.97 125.167 114.137 125.167 116.715C125.167 118.953 124.817 120.824 124.119 122.328C123.421 123.832 122.445 125.076 121.192 126.061C119.957 127.027 118.515 127.824 116.868 128.451L113.78 130.196H100.862L100.809 122.918H110.369C111.569 122.918 112.562 122.704 113.35 122.274C114.138 121.844 114.729 121.236 115.123 120.448C115.534 119.642 115.74 118.684 115.74 117.574C115.74 116.446 115.534 115.479 115.123 114.674C114.711 113.868 114.102 113.25 113.296 112.821C112.509 112.391 111.533 112.176 110.369 112.176H104.407V144H94.981V104.898ZM116.385 144L107.737 126.705L117.728 126.651L126.482 143.597V144H116.385ZM144.502 144.537C142.139 144.537 140.027 144.17 138.165 143.436C136.303 142.684 134.727 141.655 133.438 140.348C132.167 139.041 131.191 137.537 130.511 135.836C129.848 134.135 129.517 132.336 129.517 130.438V129.417C129.517 127.287 129.812 125.318 130.403 123.509C130.994 121.683 131.871 120.09 133.035 118.729C134.199 117.368 135.658 116.312 137.413 115.56C139.167 114.79 141.208 114.405 143.536 114.405C145.595 114.405 147.439 114.736 149.068 115.399C150.697 116.061 152.076 117.01 153.204 118.246C154.349 119.481 155.218 120.976 155.809 122.73C156.417 124.485 156.722 126.454 156.722 128.639V132.318H132.981V126.651H147.886V125.953C147.904 124.986 147.734 124.163 147.376 123.482C147.036 122.802 146.535 122.283 145.872 121.925C145.21 121.567 144.404 121.388 143.455 121.388C142.47 121.388 141.656 121.603 141.011 122.032C140.385 122.462 139.892 123.053 139.534 123.805C139.194 124.539 138.952 125.389 138.809 126.356C138.666 127.323 138.594 128.343 138.594 129.417V130.438C138.594 131.512 138.737 132.488 139.024 133.365C139.328 134.243 139.758 134.994 140.313 135.621C140.886 136.23 141.566 136.704 142.354 137.044C143.16 137.385 144.073 137.555 145.093 137.555C146.329 137.555 147.546 137.322 148.746 136.856C149.945 136.391 150.975 135.621 151.834 134.547L155.943 139.435C155.352 140.276 154.511 141.091 153.418 141.878C152.344 142.666 151.055 143.311 149.551 143.812C148.047 144.295 146.364 144.537 144.502 144.537ZM172.674 137.555C173.515 137.555 174.231 137.403 174.822 137.098C175.431 136.776 175.888 136.328 176.192 135.755C176.514 135.165 176.666 134.457 176.648 133.634H185.162C185.18 135.818 184.642 137.734 183.55 139.381C182.476 141.01 181.008 142.281 179.146 143.194C177.302 144.09 175.216 144.537 172.889 144.537C170.615 144.537 168.628 144.17 166.927 143.436C165.226 142.684 163.803 141.646 162.657 140.321C161.529 138.978 160.678 137.411 160.105 135.621C159.55 133.831 159.273 131.888 159.273 129.793V129.176C159.273 127.081 159.55 125.139 160.105 123.348C160.678 121.54 161.529 119.973 162.657 118.648C163.803 117.306 165.217 116.267 166.9 115.533C168.601 114.781 170.579 114.405 172.835 114.405C175.252 114.405 177.382 114.862 179.227 115.775C181.089 116.688 182.548 118.013 183.604 119.75C184.66 121.486 185.18 123.59 185.162 126.061H176.648C176.666 125.183 176.532 124.396 176.246 123.697C175.959 122.999 175.512 122.444 174.903 122.032C174.312 121.603 173.551 121.388 172.62 121.388C171.689 121.388 170.937 121.594 170.364 122.005C169.791 122.417 169.353 122.99 169.048 123.724C168.762 124.44 168.565 125.264 168.458 126.195C168.368 127.126 168.323 128.119 168.323 129.176V129.793C168.323 130.868 168.368 131.879 168.458 132.828C168.565 133.759 168.771 134.583 169.075 135.299C169.38 135.997 169.818 136.552 170.391 136.964C170.964 137.358 171.725 137.555 172.674 137.555ZM187.901 129.767V129.203C187.901 127.072 188.205 125.112 188.814 123.321C189.423 121.513 190.318 119.946 191.5 118.622C192.681 117.297 194.14 116.267 195.877 115.533C197.614 114.781 199.619 114.405 201.893 114.405C204.184 114.405 206.198 114.781 207.935 115.533C209.69 116.267 211.158 117.297 212.339 118.622C213.521 119.946 214.416 121.513 215.025 123.321C215.634 125.112 215.938 127.072 215.938 129.203V129.767C215.938 131.879 215.634 133.84 215.025 135.648C214.416 137.438 213.521 139.005 212.339 140.348C211.158 141.673 209.699 142.702 207.962 143.436C206.225 144.17 204.22 144.537 201.946 144.537C199.673 144.537 197.658 144.17 195.904 143.436C194.149 142.702 192.681 141.673 191.5 140.348C190.318 139.005 189.423 137.438 188.814 135.648C188.205 133.84 187.901 131.879 187.901 129.767ZM196.951 129.203V129.767C196.951 130.859 197.032 131.879 197.193 132.828C197.354 133.777 197.623 134.61 197.999 135.326C198.375 136.024 198.885 136.57 199.529 136.964C200.174 137.358 200.979 137.555 201.946 137.555C202.895 137.555 203.683 137.358 204.31 136.964C204.954 136.57 205.464 136.024 205.84 135.326C206.216 134.61 206.485 133.777 206.646 132.828C206.807 131.879 206.888 130.859 206.888 129.767V129.203C206.888 128.146 206.807 127.153 206.646 126.222C206.485 125.273 206.216 124.44 205.84 123.724C205.464 122.99 204.954 122.417 204.31 122.005C203.665 121.594 202.859 121.388 201.893 121.388C200.944 121.388 200.147 121.594 199.502 122.005C198.876 122.417 198.375 122.99 197.999 123.724C197.623 124.44 197.354 125.273 197.193 126.222C197.032 127.153 196.951 128.146 196.951 129.203ZM229.097 122.14V144H220.047V114.942H228.506L229.097 122.14ZM237.691 114.728L237.53 123.133C237.172 123.097 236.688 123.053 236.08 122.999C235.471 122.945 234.961 122.918 234.549 122.918C233.493 122.918 232.579 123.044 231.81 123.294C231.058 123.527 230.431 123.885 229.93 124.369C229.446 124.834 229.088 125.425 228.855 126.141C228.641 126.857 228.542 127.69 228.56 128.639L226.922 127.564C226.922 125.613 227.11 123.84 227.486 122.247C227.88 120.636 228.435 119.248 229.151 118.084C229.867 116.903 230.735 115.999 231.756 115.372C232.776 114.728 233.922 114.405 235.193 114.405C235.641 114.405 236.08 114.432 236.509 114.486C236.957 114.54 237.351 114.62 237.691 114.728ZM256.973 137.34V102.75H266.077V144H257.913L256.973 137.34ZM239.141 129.82V129.256C239.141 127.054 239.383 125.049 239.866 123.241C240.35 121.415 241.066 119.848 242.015 118.541C242.964 117.216 244.145 116.196 245.56 115.479C246.974 114.763 248.603 114.405 250.447 114.405C252.094 114.405 253.536 114.79 254.771 115.56C256.006 116.312 257.063 117.368 257.94 118.729C258.817 120.09 259.533 121.683 260.088 123.509C260.643 125.318 261.064 127.269 261.351 129.364V130.035C261.064 132.005 260.643 133.867 260.088 135.621C259.533 137.358 258.817 138.897 257.94 140.24C257.063 141.583 255.997 142.639 254.744 143.409C253.509 144.161 252.059 144.537 250.394 144.537C248.549 144.537 246.92 144.17 245.506 143.436C244.109 142.702 242.937 141.673 241.988 140.348C241.057 139.023 240.35 137.465 239.866 135.675C239.383 133.884 239.141 131.933 239.141 129.82ZM248.191 129.256V129.82C248.191 130.912 248.263 131.924 248.406 132.855C248.549 133.786 248.791 134.61 249.131 135.326C249.489 136.024 249.955 136.57 250.528 136.964C251.119 137.358 251.844 137.555 252.703 137.555C253.867 137.555 254.825 137.277 255.577 136.722C256.347 136.167 256.91 135.379 257.269 134.359C257.645 133.338 257.806 132.139 257.752 130.76V128.639C257.788 127.457 257.707 126.419 257.51 125.523C257.313 124.61 257 123.849 256.57 123.241C256.159 122.632 255.63 122.175 254.986 121.871C254.359 121.549 253.616 121.388 252.757 121.388C251.915 121.388 251.199 121.585 250.608 121.979C250.035 122.372 249.57 122.927 249.212 123.644C248.854 124.342 248.594 125.174 248.433 126.141C248.272 127.09 248.191 128.128 248.191 129.256ZM280.767 114.942V144H271.69V114.942H280.767ZM271.153 107.45C271.153 106.161 271.618 105.104 272.549 104.281C273.48 103.457 274.689 103.045 276.175 103.045C277.661 103.045 278.869 103.457 279.8 104.281C280.731 105.104 281.197 106.161 281.197 107.45C281.197 108.739 280.731 109.795 279.8 110.619C278.869 111.442 277.661 111.854 276.175 111.854C274.689 111.854 273.48 111.442 272.549 110.619C271.618 109.795 271.153 108.739 271.153 107.45ZM295.914 102.75V144H286.836V102.75H295.914ZM310.416 140.589L317.935 114.942H327.657L315.975 148.324C315.724 149.058 315.393 149.846 314.981 150.687C314.569 151.546 314.005 152.361 313.289 153.131C312.573 153.901 311.651 154.527 310.523 155.011C309.413 155.494 308.034 155.736 306.387 155.736C305.51 155.736 304.865 155.691 304.454 155.602C304.06 155.53 303.451 155.396 302.627 155.199V148.727C302.86 148.727 303.057 148.727 303.218 148.727C303.397 148.727 303.594 148.727 303.809 148.727C304.776 148.727 305.546 148.628 306.119 148.431C306.709 148.234 307.157 147.948 307.461 147.572C307.784 147.196 308.034 146.739 308.213 146.202L310.416 140.589ZM308.509 114.942L314.229 135.272L315.223 144.859H309.153L298.814 114.942H308.509Z" fill="black"/>
<path d="M112.217 76.001V80H94.5806V76.001H112.217ZM111.961 57.9712L96.8535 80H93.2476V77.0605L108.475 55.1172H111.961V57.9712ZM110.201 55.1172V59.1333H93.2646V55.1172H110.201ZM123.309 80.3418C121.873 80.3418 120.586 80.1139 119.446 79.6582C118.307 79.1911 117.339 78.5474 116.541 77.7271C115.755 76.9067 115.151 75.9554 114.729 74.873C114.308 73.7793 114.097 72.6172 114.097 71.3867V70.7031C114.097 69.3018 114.297 68.02 114.695 66.8579C115.094 65.6958 115.664 64.6875 116.404 63.833C117.156 62.9785 118.068 62.3234 119.139 61.8677C120.21 61.4006 121.417 61.167 122.762 61.167C124.072 61.167 125.234 61.3835 126.248 61.8164C127.262 62.2493 128.111 62.8646 128.794 63.6621C129.489 64.4596 130.014 65.4167 130.367 66.5332C130.72 67.6383 130.896 68.8688 130.896 70.2246V72.2754H116.199V68.9941H126.06V68.6182C126.06 67.9346 125.935 67.325 125.684 66.7896C125.445 66.2427 125.08 65.8097 124.59 65.4907C124.1 65.1717 123.474 65.0122 122.71 65.0122C122.061 65.0122 121.503 65.1546 121.036 65.4395C120.569 65.7243 120.187 66.123 119.891 66.6357C119.606 67.1484 119.389 67.7523 119.241 68.4473C119.104 69.1309 119.036 69.8828 119.036 70.7031V71.3867C119.036 72.1273 119.139 72.8109 119.344 73.4375C119.56 74.0641 119.862 74.6053 120.25 75.061C120.648 75.5168 121.127 75.87 121.685 76.1206C122.255 76.3713 122.898 76.4966 123.616 76.4966C124.505 76.4966 125.331 76.3257 126.094 75.9839C126.869 75.6307 127.535 75.1009 128.094 74.3945L130.486 76.9922C130.099 77.5505 129.569 78.0859 128.897 78.5986C128.236 79.1113 127.439 79.5329 126.504 79.8633C125.57 80.1823 124.505 80.3418 123.309 80.3418ZM138.895 61.5088V80H133.956V61.5088H138.895ZM133.648 56.6895C133.648 55.9717 133.899 55.3792 134.4 54.9121C134.901 54.445 135.573 54.2114 136.417 54.2114C137.248 54.2114 137.915 54.445 138.416 54.9121C138.929 55.3792 139.185 55.9717 139.185 56.6895C139.185 57.4072 138.929 57.9997 138.416 58.4668C137.915 58.9339 137.248 59.1675 136.417 59.1675C135.573 59.1675 134.901 58.9339 134.4 58.4668C133.899 57.9997 133.648 57.4072 133.648 56.6895ZM147.781 65.4565V80H142.859V61.5088H147.474L147.781 65.4565ZM147.063 70.105H145.73C145.73 68.7378 145.907 67.5073 146.26 66.4136C146.613 65.3084 147.109 64.3685 147.747 63.5938C148.385 62.8076 149.143 62.2095 150.02 61.7993C150.909 61.3778 151.9 61.167 152.994 61.167C153.86 61.167 154.651 61.2923 155.369 61.543C156.087 61.7936 156.702 62.1924 157.215 62.7393C157.739 63.2861 158.138 64.0096 158.411 64.9097C158.696 65.8097 158.838 66.9092 158.838 68.208V80H153.882V68.1909C153.882 67.3706 153.768 66.7326 153.541 66.2769C153.313 65.8211 152.977 65.5021 152.532 65.3198C152.099 65.1261 151.564 65.0293 150.926 65.0293C150.265 65.0293 149.69 65.1603 149.2 65.4224C148.721 65.6844 148.322 66.049 148.003 66.5161C147.696 66.9718 147.462 67.5073 147.303 68.1226C147.143 68.7378 147.063 69.3986 147.063 70.105ZM172.562 75.8301V67.5928C172.562 67.0003 172.465 66.4933 172.271 66.0718C172.077 65.6388 171.775 65.3027 171.365 65.0635C170.966 64.8242 170.448 64.7046 169.81 64.7046C169.263 64.7046 168.79 64.8014 168.392 64.9951C167.993 65.1774 167.685 65.4451 167.469 65.7983C167.252 66.1401 167.144 66.5446 167.144 67.0117H162.222C162.222 66.2256 162.404 65.4793 162.769 64.7729C163.134 64.0666 163.663 63.4456 164.358 62.9102C165.053 62.3633 165.879 61.936 166.836 61.6284C167.805 61.3208 168.887 61.167 170.083 61.167C171.519 61.167 172.795 61.4062 173.912 61.8848C175.028 62.3633 175.905 63.0811 176.543 64.0381C177.193 64.9951 177.518 66.1914 177.518 67.627V75.5396C177.518 76.5535 177.58 77.3853 177.706 78.0347C177.831 78.6727 178.013 79.231 178.252 79.7095V80H173.279C173.04 79.4987 172.858 78.8721 172.732 78.1201C172.618 77.3568 172.562 76.5934 172.562 75.8301ZM173.211 68.7378L173.245 71.5234H170.494C169.844 71.5234 169.28 71.5975 168.802 71.7456C168.323 71.8937 167.93 72.1045 167.623 72.3779C167.315 72.64 167.087 72.9476 166.939 73.3008C166.802 73.654 166.734 74.0413 166.734 74.4629C166.734 74.8844 166.831 75.2661 167.024 75.6079C167.218 75.9383 167.497 76.2004 167.862 76.394C168.226 76.5763 168.654 76.6675 169.144 76.6675C169.884 76.6675 170.528 76.5194 171.075 76.2231C171.622 75.9269 172.043 75.5623 172.339 75.1294C172.647 74.6965 172.806 74.2863 172.818 73.8989L174.117 75.9839C173.934 76.451 173.684 76.9352 173.365 77.4365C173.057 77.9378 172.664 78.4106 172.186 78.855C171.707 79.2879 171.132 79.6468 170.459 79.9316C169.787 80.2051 168.99 80.3418 168.067 80.3418C166.893 80.3418 165.828 80.1082 164.871 79.6411C163.925 79.1626 163.174 78.5075 162.615 77.6758C162.068 76.8327 161.795 75.8757 161.795 74.8047C161.795 73.8363 161.977 72.9761 162.342 72.2241C162.706 71.4722 163.242 70.8398 163.948 70.3271C164.666 69.8031 165.56 69.41 166.631 69.1479C167.702 68.8745 168.944 68.7378 170.357 68.7378H173.211ZM210.774 66.9775V68.1567C210.774 70.048 210.518 71.7456 210.005 73.2495C209.493 74.7534 208.769 76.0352 207.835 77.0947C206.901 78.1429 205.784 78.9461 204.485 79.5044C203.198 80.0627 201.768 80.3418 200.196 80.3418C198.635 80.3418 197.205 80.0627 195.906 79.5044C194.619 78.9461 193.502 78.1429 192.557 77.0947C191.611 76.0352 190.876 74.7534 190.352 73.2495C189.839 71.7456 189.583 70.048 189.583 68.1567V66.9775C189.583 65.0749 189.839 63.3773 190.352 61.8848C190.865 60.3809 191.588 59.0991 192.522 58.0396C193.468 56.98 194.585 56.1711 195.872 55.6128C197.171 55.0545 198.601 54.7754 200.162 54.7754C201.734 54.7754 203.164 55.0545 204.451 55.6128C205.75 56.1711 206.867 56.98 207.801 58.0396C208.746 59.0991 209.476 60.3809 209.988 61.8848C210.512 63.3773 210.774 65.0749 210.774 66.9775ZM205.596 68.1567V66.9434C205.596 65.6217 205.477 64.4596 205.237 63.457C204.998 62.4544 204.645 61.6113 204.178 60.9277C203.711 60.2441 203.141 59.7314 202.469 59.3896C201.797 59.0365 201.028 58.8599 200.162 58.8599C199.296 58.8599 198.527 59.0365 197.854 59.3896C197.194 59.7314 196.63 60.2441 196.163 60.9277C195.707 61.6113 195.359 62.4544 195.12 63.457C194.881 64.4596 194.761 65.6217 194.761 66.9434V68.1567C194.761 69.467 194.881 70.6291 195.12 71.6431C195.359 72.6457 195.713 73.4945 196.18 74.1895C196.647 74.873 197.216 75.3914 197.889 75.7446C198.561 76.0978 199.33 76.2744 200.196 76.2744C201.062 76.2744 201.831 76.0978 202.503 75.7446C203.175 75.3914 203.739 74.873 204.195 74.1895C204.651 73.4945 204.998 72.6457 205.237 71.6431C205.477 70.6291 205.596 69.467 205.596 68.1567ZM219.354 53.75V80H214.415V53.75H219.354ZM233.401 75.8301V67.5928C233.401 67.0003 233.305 66.4933 233.111 66.0718C232.917 65.6388 232.615 65.3027 232.205 65.0635C231.806 64.8242 231.288 64.7046 230.65 64.7046C230.103 64.7046 229.63 64.8014 229.231 64.9951C228.833 65.1774 228.525 65.4451 228.309 65.7983C228.092 66.1401 227.984 66.5446 227.984 67.0117H223.062C223.062 66.2256 223.244 65.4793 223.609 64.7729C223.973 64.0666 224.503 63.4456 225.198 62.9102C225.893 62.3633 226.719 61.936 227.676 61.6284C228.645 61.3208 229.727 61.167 230.923 61.167C232.359 61.167 233.635 61.4062 234.751 61.8848C235.868 62.3633 236.745 63.0811 237.383 64.0381C238.033 64.9951 238.357 66.1914 238.357 67.627V75.5396C238.357 76.5535 238.42 77.3853 238.545 78.0347C238.671 78.6727 238.853 79.231 239.092 79.7095V80H234.119C233.88 79.4987 233.698 78.8721 233.572 78.1201C233.458 77.3568 233.401 76.5934 233.401 75.8301ZM234.051 68.7378L234.085 71.5234H231.333C230.684 71.5234 230.12 71.5975 229.642 71.7456C229.163 71.8937 228.77 72.1045 228.462 72.3779C228.155 72.64 227.927 72.9476 227.779 73.3008C227.642 73.654 227.574 74.0413 227.574 74.4629C227.574 74.8844 227.671 75.2661 227.864 75.6079C228.058 75.9383 228.337 76.2004 228.702 76.394C229.066 76.5763 229.493 76.6675 229.983 76.6675C230.724 76.6675 231.368 76.5194 231.915 76.2231C232.461 75.9269 232.883 75.5623 233.179 75.1294C233.487 74.6965 233.646 74.2863 233.658 73.8989L234.957 75.9839C234.774 76.451 234.524 76.9352 234.205 77.4365C233.897 77.9378 233.504 78.4106 233.025 78.855C232.547 79.2879 231.972 79.6468 231.299 79.9316C230.627 80.2051 229.83 80.3418 228.907 80.3418C227.733 80.3418 226.668 80.1082 225.711 79.6411C224.765 79.1626 224.013 78.5075 223.455 77.6758C222.908 76.8327 222.635 75.8757 222.635 74.8047C222.635 73.8363 222.817 72.9761 223.182 72.2241C223.546 71.4722 224.082 70.8398 224.788 70.3271C225.506 69.8031 226.4 69.41 227.471 69.1479C228.542 68.8745 229.784 68.7378 231.197 68.7378H234.051ZM242.151 53.75H247.073V75.7617L246.578 80H242.151V53.75ZM258.78 70.5664V70.9253C258.78 72.3039 258.632 73.5685 258.335 74.7192C258.051 75.87 257.606 76.8669 257.002 77.71C256.399 78.5417 255.647 79.1911 254.747 79.6582C253.858 80.1139 252.81 80.3418 251.602 80.3418C250.474 80.3418 249.494 80.1139 248.663 79.6582C247.842 79.2025 247.153 78.5588 246.595 77.7271C246.036 76.8953 245.586 75.9212 245.245 74.8047C244.903 73.6882 244.646 72.4691 244.476 71.1475V70.3613C244.646 69.0397 244.903 67.8206 245.245 66.7041C245.586 65.5876 246.036 64.6134 246.595 63.7817C247.153 62.95 247.842 62.3063 248.663 61.8506C249.483 61.3949 250.451 61.167 251.568 61.167C252.787 61.167 253.847 61.4006 254.747 61.8677C255.658 62.3234 256.41 62.9728 257.002 63.8159C257.606 64.6476 258.051 65.6388 258.335 66.7896C258.632 67.9289 258.78 69.1878 258.78 70.5664ZM253.858 70.9253V70.5664C253.858 69.8145 253.801 69.1081 253.687 68.4473C253.584 67.7751 253.402 67.1883 253.14 66.687C252.878 66.1743 252.519 65.7699 252.063 65.4736C251.619 65.1774 251.044 65.0293 250.337 65.0293C249.665 65.0293 249.096 65.1432 248.628 65.3711C248.161 65.599 247.774 65.918 247.466 66.3281C247.17 66.7383 246.948 67.2282 246.8 67.7979C246.652 68.3561 246.561 68.9714 246.526 69.6436V71.8823C246.561 72.7824 246.709 73.5799 246.971 74.2749C247.244 74.9585 247.654 75.4997 248.201 75.8984C248.759 76.2858 249.483 76.4795 250.372 76.4795C251.067 76.4795 251.642 76.3428 252.098 76.0693C252.553 75.7959 252.907 75.4085 253.157 74.9072C253.419 74.4059 253.602 73.8192 253.704 73.147C253.807 72.4634 253.858 71.7228 253.858 70.9253ZM267.034 61.5088V80H262.095V61.5088H267.034ZM261.788 56.6895C261.788 55.9717 262.038 55.3792 262.54 54.9121C263.041 54.445 263.713 54.2114 264.556 54.2114C265.388 54.2114 266.054 54.445 266.556 54.9121C267.068 55.3792 267.325 55.9717 267.325 56.6895C267.325 57.4072 267.068 57.9997 266.556 58.4668C266.054 58.9339 265.388 59.1675 264.556 59.1675C263.713 59.1675 263.041 58.9339 262.54 58.4668C262.038 57.9997 261.788 57.4072 261.788 56.6895Z" fill="#888888"/>
<rect x="92" y="181" width="1179" height="80" rx="13.3333" fill="#CCCCCC"/>
<rect x="107" y="196.333" width="208" height="49.3333" rx="4.66667" fill="#888888" stroke="#888888" stroke-width="4"/>
<path d="M187.573 213.167V228.333H183.917V213.167H187.573ZM196.625 213.167L190.75 220.854L187.312 224.615L186.646 221.26L188.844 217.927L192.115 213.167H196.625ZM192.302 228.333L188.385 221.5L191.229 219.406L196.625 228.333H192.302ZM196.667 222.812V222.594C196.667 221.767 196.785 221.007 197.021 220.312C197.257 219.611 197.604 219.003 198.062 218.49C198.521 217.976 199.087 217.576 199.76 217.292C200.434 217 201.212 216.854 202.094 216.854C202.983 216.854 203.764 217 204.437 217.292C205.118 217.576 205.687 217.976 206.146 218.49C206.604 219.003 206.951 219.611 207.187 220.312C207.424 221.007 207.542 221.767 207.542 222.594V222.812C207.542 223.632 207.424 224.392 207.187 225.094C206.951 225.788 206.604 226.396 206.146 226.917C205.687 227.431 205.122 227.83 204.448 228.115C203.774 228.399 202.997 228.542 202.115 228.542C201.233 228.542 200.451 228.399 199.771 228.115C199.09 227.83 198.521 227.431 198.062 226.917C197.604 226.396 197.257 225.788 197.021 225.094C196.785 224.392 196.667 223.632 196.667 222.812ZM200.177 222.594V222.812C200.177 223.236 200.208 223.632 200.271 224C200.333 224.368 200.437 224.691 200.583 224.969C200.729 225.24 200.927 225.451 201.177 225.604C201.427 225.757 201.74 225.833 202.115 225.833C202.483 225.833 202.788 225.757 203.031 225.604C203.281 225.451 203.479 225.24 203.625 224.969C203.771 224.691 203.875 224.368 203.937 224C204 223.632 204.031 223.236 204.031 222.812V222.594C204.031 222.184 204 221.799 203.937 221.437C203.875 221.069 203.771 220.747 203.625 220.469C203.479 220.184 203.281 219.962 203.031 219.802C202.781 219.642 202.469 219.562 202.094 219.562C201.726 219.562 201.417 219.642 201.167 219.802C200.924 219.962 200.729 220.184 200.583 220.469C200.437 220.747 200.333 221.069 200.271 221.437C200.208 221.799 200.177 222.184 200.177 222.594ZM215.042 217.062V219.5H208.25V217.062H215.042ZM209.677 214.26H213.187V224.656C213.187 224.955 213.222 225.187 213.292 225.354C213.361 225.514 213.479 225.628 213.646 225.698C213.819 225.76 214.049 225.792 214.333 225.792C214.535 225.792 214.701 225.788 214.833 225.781C214.965 225.767 215.09 225.75 215.208 225.729V228.24C214.91 228.337 214.597 228.41 214.271 228.458C213.944 228.514 213.597 228.542 213.229 228.542C212.479 228.542 211.837 228.424 211.302 228.187C210.774 227.951 210.372 227.58 210.094 227.073C209.816 226.566 209.677 225.906 209.677 225.094V214.26ZM220.146 212.333V228.333H216.625V212.333H220.146ZM226.021 217.062V228.333H222.5V217.062H226.021ZM222.292 214.156C222.292 213.656 222.472 213.247 222.833 212.927C223.194 212.608 223.663 212.448 224.24 212.448C224.816 212.448 225.285 212.608 225.646 212.927C226.007 213.247 226.187 213.656 226.187 214.156C226.187 214.656 226.007 215.066 225.646 215.385C225.285 215.705 224.816 215.865 224.24 215.865C223.663 215.865 223.194 215.705 222.833 215.385C222.472 215.066 222.292 214.656 222.292 214.156ZM231.635 219.469V228.333H228.125V217.062H231.417L231.635 219.469ZM231.219 222.312L230.396 222.333C230.396 221.472 230.5 220.705 230.708 220.031C230.917 219.351 231.212 218.774 231.594 218.302C231.976 217.83 232.431 217.472 232.958 217.229C233.493 216.979 234.087 216.854 234.74 216.854C235.26 216.854 235.736 216.931 236.167 217.083C236.604 217.236 236.979 217.483 237.292 217.823C237.611 218.163 237.854 218.615 238.021 219.177C238.194 219.733 238.281 220.42 238.281 221.24V228.333H234.75V221.229C234.75 220.778 234.687 220.434 234.562 220.198C234.437 219.955 234.257 219.788 234.021 219.698C233.785 219.608 233.497 219.562 233.156 219.562C232.795 219.562 232.49 219.632 232.24 219.771C231.99 219.91 231.788 220.104 231.635 220.354C231.49 220.597 231.382 220.885 231.312 221.219C231.25 221.552 231.219 221.917 231.219 222.312Z" fill="white"/>
<rect x="339" y="196.333" width="208" height="49.3333" rx="4.66667" fill="#888888" stroke="#888888" stroke-width="4"/>
<path d="M363.51 223.573V213.167H367.156V223.573C367.156 224.587 366.924 225.465 366.458 226.208C366 226.951 365.375 227.528 364.583 227.937C363.799 228.34 362.917 228.542 361.937 228.542C360.924 228.542 360.021 228.372 359.229 228.031C358.444 227.691 357.826 227.167 357.375 226.458C356.931 225.75 356.708 224.847 356.708 223.75H360.375C360.375 224.264 360.434 224.667 360.552 224.958C360.67 225.243 360.844 225.444 361.073 225.562C361.309 225.674 361.597 225.729 361.937 225.729C362.271 225.729 362.552 225.646 362.781 225.479C363.017 225.306 363.198 225.059 363.323 224.74C363.448 224.413 363.51 224.024 363.51 223.573ZM374.771 228.542C373.854 228.542 373.035 228.399 372.312 228.115C371.59 227.823 370.979 227.424 370.479 226.917C369.986 226.41 369.608 225.826 369.344 225.167C369.087 224.507 368.958 223.809 368.958 223.073V222.677C368.958 221.851 369.073 221.087 369.302 220.385C369.531 219.677 369.872 219.059 370.323 218.531C370.774 218.003 371.34 217.594 372.021 217.302C372.701 217.003 373.493 216.854 374.396 216.854C375.194 216.854 375.91 216.983 376.542 217.24C377.174 217.497 377.708 217.865 378.146 218.344C378.59 218.823 378.927 219.403 379.156 220.083C379.392 220.764 379.51 221.528 379.51 222.375V223.802H370.302V221.604H376.083V221.333C376.09 220.958 376.024 220.639 375.885 220.375C375.753 220.111 375.559 219.91 375.302 219.771C375.045 219.632 374.733 219.562 374.365 219.562C373.983 219.562 373.667 219.646 373.417 219.812C373.174 219.979 372.983 220.208 372.844 220.5C372.712 220.785 372.618 221.115 372.562 221.49C372.507 221.865 372.479 222.26 372.479 222.677V223.073C372.479 223.49 372.535 223.868 372.646 224.208C372.764 224.549 372.931 224.84 373.146 225.083C373.368 225.319 373.632 225.503 373.937 225.635C374.25 225.767 374.604 225.833 375 225.833C375.479 225.833 375.951 225.743 376.417 225.562C376.882 225.382 377.281 225.083 377.615 224.667L379.208 226.562C378.979 226.889 378.653 227.205 378.229 227.51C377.812 227.816 377.312 228.066 376.729 228.26C376.146 228.448 375.493 228.542 374.771 228.542ZM386.875 217.062V219.5H380.083V217.062H386.875ZM381.51 214.26H385.021V224.656C385.021 224.955 385.056 225.187 385.125 225.354C385.194 225.514 385.312 225.628 385.479 225.698C385.653 225.76 385.882 225.792 386.167 225.792C386.368 225.792 386.535 225.788 386.667 225.781C386.799 225.767 386.924 225.75 387.042 225.729V228.24C386.743 228.337 386.431 228.41 386.104 228.458C385.778 228.514 385.431 228.542 385.062 228.542C384.312 228.542 383.67 228.424 383.135 228.187C382.608 227.951 382.205 227.58 381.927 227.073C381.649 226.566 381.51 225.906 381.51 225.094V214.26ZM391.813 219.229V232.667H388.302V217.062H391.573L391.813 219.229ZM398.729 222.562V222.781C398.729 223.601 398.635 224.361 398.448 225.062C398.26 225.764 397.983 226.375 397.615 226.896C397.247 227.417 396.788 227.823 396.24 228.115C395.698 228.399 395.069 228.542 394.354 228.542C393.681 228.542 393.101 228.392 392.615 228.094C392.128 227.795 391.722 227.382 391.396 226.854C391.069 226.326 390.806 225.722 390.604 225.042C390.403 224.361 390.243 223.642 390.125 222.885V222.604C390.243 221.792 390.403 221.038 390.604 220.344C390.806 219.642 391.069 219.031 391.396 218.51C391.722 217.99 392.125 217.583 392.604 217.292C393.09 217 393.67 216.854 394.344 216.854C395.059 216.854 395.688 216.99 396.229 217.26C396.778 217.531 397.236 217.92 397.604 218.427C397.979 218.927 398.26 219.528 398.448 220.229C398.635 220.931 398.729 221.708 398.729 222.562ZM395.219 222.781V222.562C395.219 222.125 395.188 221.726 395.125 221.365C395.063 220.997 394.962 220.677 394.823 220.406C394.691 220.135 394.514 219.927 394.292 219.781C394.069 219.635 393.795 219.562 393.469 219.562C393.094 219.562 392.778 219.622 392.521 219.74C392.271 219.851 392.069 220.024 391.917 220.26C391.771 220.49 391.667 220.778 391.604 221.125C391.549 221.465 391.524 221.865 391.531 222.323V223.177C391.517 223.705 391.569 224.17 391.688 224.573C391.806 224.969 392.01 225.278 392.302 225.5C392.594 225.722 392.99 225.833 393.49 225.833C393.823 225.833 394.101 225.757 394.323 225.604C394.545 225.444 394.722 225.226 394.854 224.948C394.986 224.663 395.08 224.337 395.135 223.969C395.191 223.601 395.219 223.205 395.219 222.781ZM406.146 225.5V220.854C406.146 220.535 406.101 220.26 406.01 220.031C405.92 219.802 405.778 219.625 405.583 219.5C405.389 219.368 405.128 219.302 404.802 219.302C404.538 219.302 404.312 219.347 404.125 219.437C403.937 219.528 403.795 219.663 403.698 219.844C403.601 220.024 403.552 220.253 403.552 220.531H400.042C400.042 220.01 400.156 219.528 400.385 219.083C400.622 218.632 400.955 218.24 401.385 217.906C401.823 217.573 402.344 217.316 402.948 217.135C403.559 216.948 404.24 216.854 404.99 216.854C405.885 216.854 406.684 217.003 407.385 217.302C408.094 217.601 408.653 218.049 409.062 218.646C409.472 219.236 409.677 219.979 409.677 220.875V225.49C409.677 226.226 409.719 226.785 409.802 227.167C409.885 227.542 410.003 227.872 410.156 228.156V228.333H406.635C406.469 227.986 406.344 227.562 406.26 227.062C406.184 226.556 406.146 226.035 406.146 225.5ZM406.573 221.448L406.594 223.323H405.042C404.715 223.323 404.437 223.368 404.208 223.458C403.986 223.549 403.806 223.674 403.667 223.833C403.535 223.986 403.437 224.16 403.375 224.354C403.319 224.549 403.292 224.753 403.292 224.969C403.292 225.177 403.34 225.365 403.437 225.531C403.542 225.691 403.681 225.816 403.854 225.906C404.028 225.997 404.222 226.042 404.437 226.042C404.826 226.042 405.156 225.969 405.427 225.823C405.705 225.67 405.917 225.486 406.062 225.271C406.208 225.056 406.281 224.854 406.281 224.667L407.052 226.104C406.913 226.382 406.753 226.663 406.573 226.948C406.399 227.233 406.181 227.497 405.917 227.74C405.66 227.976 405.344 228.17 404.969 228.323C404.594 228.469 404.139 228.542 403.604 228.542C402.91 228.542 402.271 228.399 401.687 228.115C401.111 227.83 400.649 227.434 400.302 226.927C399.955 226.413 399.781 225.823 399.781 225.156C399.781 224.573 399.885 224.052 400.094 223.594C400.309 223.135 400.632 222.747 401.062 222.427C401.493 222.108 402.042 221.865 402.708 221.698C403.375 221.531 404.16 221.448 405.062 221.448H406.573ZM416.385 225.833C416.712 225.833 416.99 225.774 417.219 225.656C417.455 225.531 417.632 225.358 417.75 225.135C417.875 224.906 417.934 224.632 417.927 224.312H421.229C421.236 225.16 421.028 225.903 420.604 226.542C420.187 227.174 419.618 227.667 418.896 228.021C418.181 228.368 417.372 228.542 416.469 228.542C415.587 228.542 414.816 228.399 414.156 228.115C413.497 227.823 412.944 227.42 412.5 226.906C412.062 226.385 411.733 225.778 411.51 225.083C411.295 224.389 411.187 223.635 411.187 222.823V222.583C411.187 221.771 411.295 221.017 411.51 220.323C411.733 219.622 412.062 219.014 412.5 218.5C412.944 217.979 413.493 217.576 414.146 217.292C414.806 217 415.573 216.854 416.448 216.854C417.385 216.854 418.212 217.031 418.927 217.385C419.649 217.74 420.215 218.253 420.625 218.927C421.035 219.601 421.236 220.417 421.229 221.375H417.927C417.934 221.035 417.882 220.729 417.771 220.458C417.66 220.187 417.486 219.972 417.25 219.812C417.021 219.646 416.726 219.562 416.365 219.562C416.003 219.562 415.712 219.642 415.49 219.802C415.267 219.962 415.097 220.184 414.979 220.469C414.868 220.747 414.792 221.066 414.75 221.427C414.715 221.788 414.698 222.174 414.698 222.583V222.823C414.698 223.24 414.715 223.632 414.75 224C414.792 224.361 414.872 224.681 414.99 224.958C415.108 225.229 415.278 225.444 415.5 225.604C415.722 225.757 416.017 225.833 416.385 225.833ZM426.271 212.323V228.333H422.76V212.323H426.271ZM433.479 217.062L428.583 222.802L426.021 225.365L424.49 223.135L426.625 220.354L429.271 217.062H433.479ZM429.719 228.333L426.708 223.198L429.302 221.354L433.74 228.333H429.719ZM448.5 223.198H452.146C452.097 224.253 451.813 225.184 451.292 225.99C450.771 226.795 450.049 227.424 449.125 227.875C448.208 228.319 447.125 228.542 445.875 228.542C444.861 228.542 443.955 228.372 443.156 228.031C442.365 227.691 441.691 227.201 441.135 226.562C440.587 225.924 440.167 225.149 439.875 224.24C439.59 223.33 439.448 222.306 439.448 221.167V220.344C439.448 219.205 439.597 218.181 439.896 217.271C440.201 216.354 440.632 215.576 441.188 214.937C441.75 214.292 442.424 213.799 443.208 213.458C443.993 213.118 444.865 212.948 445.823 212.948C447.142 212.948 448.257 213.184 449.167 213.656C450.076 214.128 450.781 214.778 451.281 215.604C451.781 216.424 452.076 217.358 452.167 218.406H448.521C448.507 217.837 448.41 217.361 448.229 216.979C448.049 216.59 447.764 216.299 447.375 216.104C446.986 215.91 446.469 215.812 445.823 215.812C445.372 215.812 444.979 215.896 444.646 216.062C444.313 216.229 444.035 216.493 443.813 216.854C443.59 217.215 443.424 217.684 443.313 218.26C443.208 218.83 443.156 219.517 443.156 220.323V221.167C443.156 221.972 443.205 222.66 443.302 223.229C443.399 223.799 443.556 224.264 443.771 224.625C443.986 224.986 444.264 225.253 444.604 225.427C444.951 225.594 445.375 225.677 445.875 225.677C446.431 225.677 446.899 225.59 447.281 225.417C447.663 225.236 447.958 224.965 448.167 224.604C448.375 224.236 448.486 223.767 448.5 223.198ZM453.271 222.812V222.594C453.271 221.767 453.389 221.007 453.625 220.312C453.861 219.611 454.208 219.003 454.667 218.49C455.125 217.976 455.691 217.576 456.365 217.292C457.038 217 457.816 216.854 458.698 216.854C459.587 216.854 460.368 217 461.042 217.292C461.722 217.576 462.292 217.976 462.75 218.49C463.208 219.003 463.556 219.611 463.792 220.312C464.028 221.007 464.146 221.767 464.146 222.594V222.812C464.146 223.632 464.028 224.392 463.792 225.094C463.556 225.788 463.208 226.396 462.75 226.917C462.292 227.431 461.726 227.83 461.052 228.115C460.378 228.399 459.601 228.542 458.719 228.542C457.837 228.542 457.056 228.399 456.375 228.115C455.694 227.83 455.125 227.431 454.667 226.917C454.208 226.396 453.861 225.788 453.625 225.094C453.389 224.392 453.271 223.632 453.271 222.812ZM456.781 222.594V222.812C456.781 223.236 456.813 223.632 456.875 224C456.938 224.368 457.042 224.691 457.188 224.969C457.333 225.24 457.531 225.451 457.781 225.604C458.031 225.757 458.344 225.833 458.719 225.833C459.087 225.833 459.392 225.757 459.635 225.604C459.885 225.451 460.083 225.24 460.229 224.969C460.375 224.691 460.479 224.368 460.542 224C460.604 223.632 460.635 223.236 460.635 222.812V222.594C460.635 222.184 460.604 221.799 460.542 221.437C460.479 221.069 460.375 220.747 460.229 220.469C460.083 220.184 459.885 219.962 459.635 219.802C459.385 219.642 459.073 219.562 458.698 219.562C458.33 219.562 458.021 219.642 457.771 219.802C457.528 219.962 457.333 220.184 457.188 220.469C457.042 220.747 456.938 221.069 456.875 221.437C456.813 221.799 456.781 222.184 456.781 222.594ZM469.25 219.448V228.333H465.74V217.062H469.031L469.25 219.448ZM468.823 222.312L468.021 222.333C468.021 221.542 468.115 220.812 468.302 220.146C468.49 219.479 468.767 218.899 469.135 218.406C469.503 217.913 469.955 217.531 470.49 217.26C471.031 216.99 471.656 216.854 472.365 216.854C472.858 216.854 473.306 216.931 473.708 217.083C474.111 217.229 474.458 217.462 474.75 217.781C475.042 218.094 475.264 218.503 475.417 219.01C475.576 219.51 475.656 220.111 475.656 220.812V228.333H472.146V221.26C472.146 220.781 472.09 220.42 471.979 220.177C471.875 219.934 471.722 219.771 471.521 219.687C471.319 219.604 471.073 219.562 470.781 219.562C470.476 219.562 470.201 219.632 469.958 219.771C469.715 219.91 469.507 220.104 469.333 220.354C469.167 220.597 469.038 220.885 468.948 221.219C468.865 221.552 468.823 221.917 468.823 222.312ZM475.26 222.312L474.281 222.333C474.281 221.542 474.368 220.812 474.542 220.146C474.722 219.479 474.99 218.899 475.344 218.406C475.705 217.913 476.153 217.531 476.688 217.26C477.222 216.99 477.844 216.854 478.552 216.854C479.066 216.854 479.538 216.931 479.969 217.083C480.399 217.236 480.771 217.483 481.083 217.823C481.396 218.163 481.639 218.615 481.813 219.177C481.986 219.733 482.073 220.42 482.073 221.24V228.333H478.552V221.24C478.552 220.774 478.497 220.424 478.385 220.187C478.281 219.944 478.128 219.781 477.927 219.698C477.726 219.608 477.486 219.562 477.208 219.562C476.875 219.562 476.587 219.632 476.344 219.771C476.101 219.91 475.896 220.104 475.729 220.354C475.569 220.597 475.451 220.885 475.375 221.219C475.299 221.552 475.26 221.917 475.26 222.312ZM487.625 219.229V232.667H484.115V217.062H487.385L487.625 219.229ZM494.542 222.562V222.781C494.542 223.601 494.448 224.361 494.26 225.062C494.073 225.764 493.795 226.375 493.427 226.896C493.059 227.417 492.601 227.823 492.052 228.115C491.51 228.399 490.882 228.542 490.167 228.542C489.493 228.542 488.913 228.392 488.427 228.094C487.941 227.795 487.535 227.382 487.208 226.854C486.882 226.326 486.618 225.722 486.417 225.042C486.215 224.361 486.056 223.642 485.938 222.885V222.604C486.056 221.792 486.215 221.038 486.417 220.344C486.618 219.642 486.882 219.031 487.208 218.51C487.535 217.99 487.938 217.583 488.417 217.292C488.903 217 489.483 216.854 490.156 216.854C490.872 216.854 491.5 216.99 492.042 217.26C492.59 217.531 493.049 217.92 493.417 218.427C493.792 218.927 494.073 219.528 494.26 220.229C494.448 220.931 494.542 221.708 494.542 222.562ZM491.031 222.781V222.562C491.031 222.125 491 221.726 490.938 221.365C490.875 220.997 490.774 220.677 490.635 220.406C490.503 220.135 490.326 219.927 490.104 219.781C489.882 219.635 489.608 219.562 489.281 219.562C488.906 219.562 488.59 219.622 488.333 219.74C488.083 219.851 487.882 220.024 487.729 220.26C487.583 220.49 487.479 220.778 487.417 221.125C487.361 221.465 487.337 221.865 487.344 222.323V223.177C487.33 223.705 487.382 224.17 487.5 224.573C487.618 224.969 487.823 225.278 488.115 225.5C488.406 225.722 488.802 225.833 489.302 225.833C489.635 225.833 489.913 225.757 490.135 225.604C490.358 225.444 490.535 225.226 490.667 224.948C490.799 224.663 490.892 224.337 490.948 223.969C491.003 223.601 491.031 223.205 491.031 222.781ZM495.667 222.812V222.594C495.667 221.767 495.785 221.007 496.021 220.312C496.257 219.611 496.604 219.003 497.063 218.49C497.521 217.976 498.087 217.576 498.76 217.292C499.434 217 500.212 216.854 501.094 216.854C501.983 216.854 502.764 217 503.438 217.292C504.118 217.576 504.688 217.976 505.146 218.49C505.604 219.003 505.951 219.611 506.188 220.312C506.424 221.007 506.542 221.767 506.542 222.594V222.812C506.542 223.632 506.424 224.392 506.188 225.094C505.951 225.788 505.604 226.396 505.146 226.917C504.688 227.431 504.122 227.83 503.448 228.115C502.774 228.399 501.997 228.542 501.115 228.542C500.233 228.542 499.451 228.399 498.771 228.115C498.09 227.83 497.521 227.431 497.063 226.917C496.604 226.396 496.257 225.788 496.021 225.094C495.785 224.392 495.667 223.632 495.667 222.812ZM499.177 222.594V222.812C499.177 223.236 499.208 223.632 499.271 224C499.333 224.368 499.438 224.691 499.583 224.969C499.729 225.24 499.927 225.451 500.177 225.604C500.427 225.757 500.74 225.833 501.115 225.833C501.483 225.833 501.788 225.757 502.031 225.604C502.281 225.451 502.479 225.24 502.625 224.969C502.771 224.691 502.875 224.368 502.938 224C503 223.632 503.031 223.236 503.031 222.812V222.594C503.031 222.184 503 221.799 502.938 221.437C502.875 221.069 502.771 220.747 502.625 220.469C502.479 220.184 502.281 219.962 502.031 219.802C501.781 219.642 501.469 219.562 501.094 219.562C500.726 219.562 500.417 219.642 500.167 219.802C499.924 219.962 499.729 220.184 499.583 220.469C499.438 220.747 499.333 221.069 499.271 221.437C499.208 221.799 499.177 222.184 499.177 222.594ZM514.01 225.167C514.01 224.972 513.944 224.806 513.813 224.667C513.688 224.521 513.465 224.389 513.146 224.271C512.826 224.146 512.378 224.021 511.802 223.896C511.253 223.778 510.736 223.622 510.25 223.427C509.771 223.233 509.351 222.997 508.99 222.719C508.628 222.441 508.344 222.111 508.135 221.729C507.934 221.347 507.833 220.91 507.833 220.417C507.833 219.937 507.934 219.486 508.135 219.062C508.344 218.632 508.646 218.253 509.042 217.927C509.444 217.594 509.934 217.333 510.51 217.146C511.087 216.951 511.743 216.854 512.479 216.854C513.493 216.854 514.368 217.01 515.104 217.323C515.84 217.628 516.406 218.059 516.802 218.615C517.205 219.163 517.406 219.799 517.406 220.521H513.896C513.896 220.236 513.847 219.993 513.75 219.792C513.66 219.59 513.51 219.437 513.302 219.333C513.094 219.222 512.816 219.167 512.469 219.167C512.226 219.167 512.003 219.212 511.802 219.302C511.608 219.392 511.451 219.517 511.333 219.677C511.215 219.837 511.156 220.024 511.156 220.24C511.156 220.392 511.191 220.531 511.26 220.656C511.337 220.774 511.451 220.885 511.604 220.99C511.757 221.087 511.951 221.177 512.188 221.26C512.424 221.337 512.708 221.406 513.042 221.469C513.799 221.608 514.507 221.806 515.167 222.062C515.826 222.319 516.361 222.684 516.771 223.156C517.188 223.628 517.396 224.264 517.396 225.062C517.396 225.562 517.281 226.024 517.052 226.448C516.823 226.865 516.493 227.233 516.063 227.552C515.632 227.865 515.115 228.108 514.51 228.281C513.906 228.455 513.226 228.542 512.469 228.542C511.392 228.542 510.483 228.351 509.74 227.969C508.997 227.58 508.434 227.094 508.052 226.51C507.677 225.92 507.49 225.323 507.49 224.719H510.76C510.774 225.066 510.858 225.351 511.01 225.573C511.17 225.795 511.382 225.958 511.646 226.062C511.91 226.167 512.215 226.219 512.563 226.219C512.882 226.219 513.146 226.174 513.354 226.083C513.569 225.993 513.733 225.872 513.844 225.719C513.955 225.559 514.01 225.375 514.01 225.167ZM524.5 228.542C523.583 228.542 522.764 228.399 522.042 228.115C521.319 227.823 520.708 227.424 520.208 226.917C519.715 226.41 519.337 225.826 519.073 225.167C518.816 224.507 518.688 223.809 518.688 223.073V222.677C518.688 221.851 518.802 221.087 519.031 220.385C519.26 219.677 519.601 219.059 520.052 218.531C520.503 218.003 521.069 217.594 521.75 217.302C522.431 217.003 523.222 216.854 524.125 216.854C524.924 216.854 525.639 216.983 526.271 217.24C526.903 217.497 527.438 217.865 527.875 218.344C528.319 218.823 528.656 219.403 528.885 220.083C529.122 220.764 529.24 221.528 529.24 222.375V223.802H520.031V221.604H525.813V221.333C525.819 220.958 525.753 220.639 525.615 220.375C525.483 220.111 525.288 219.91 525.031 219.771C524.774 219.632 524.462 219.562 524.094 219.562C523.712 219.562 523.396 219.646 523.146 219.812C522.903 219.979 522.712 220.208 522.573 220.5C522.441 220.785 522.347 221.115 522.292 221.49C522.236 221.865 522.208 222.26 522.208 222.677V223.073C522.208 223.49 522.264 223.868 522.375 224.208C522.493 224.549 522.66 224.84 522.875 225.083C523.097 225.319 523.361 225.503 523.667 225.635C523.979 225.767 524.333 225.833 524.729 225.833C525.208 225.833 525.681 225.743 526.146 225.562C526.611 225.382 527.01 225.083 527.344 224.667L528.938 226.562C528.708 226.889 528.382 227.205 527.958 227.51C527.542 227.816 527.042 228.066 526.458 228.26C525.875 228.448 525.222 228.542 524.5 228.542Z" fill="white"/>
<rect x="571" y="196.333" width="208" height="49.3333" rx="4.66667" fill="#888888" stroke="#888888" stroke-width="4"/>
<path d="M651.073 225.521V228.333H643.406V225.521H651.073ZM644.708 213.167V228.333H641.052V213.167H644.708ZM658.302 225.5V220.854C658.302 220.535 658.257 220.26 658.167 220.031C658.076 219.802 657.934 219.625 657.74 219.5C657.545 219.368 657.285 219.302 656.958 219.302C656.694 219.302 656.469 219.347 656.281 219.437C656.094 219.528 655.951 219.663 655.854 219.844C655.757 220.024 655.708 220.253 655.708 220.531H652.198C652.198 220.01 652.312 219.528 652.542 219.083C652.778 218.632 653.111 218.24 653.542 217.906C653.979 217.573 654.5 217.316 655.104 217.135C655.715 216.948 656.396 216.854 657.146 216.854C658.042 216.854 658.84 217.003 659.542 217.302C660.25 217.601 660.809 218.049 661.219 218.646C661.628 219.236 661.833 219.979 661.833 220.875V225.49C661.833 226.226 661.875 226.785 661.958 227.167C662.042 227.542 662.16 227.872 662.312 228.156V228.333H658.792C658.625 227.986 658.5 227.562 658.417 227.062C658.34 226.556 658.302 226.035 658.302 225.5ZM658.729 221.448L658.75 223.323H657.198C656.872 223.323 656.594 223.368 656.365 223.458C656.142 223.549 655.962 223.674 655.823 223.833C655.691 223.986 655.594 224.16 655.531 224.354C655.476 224.549 655.448 224.753 655.448 224.969C655.448 225.177 655.497 225.365 655.594 225.531C655.698 225.691 655.837 225.816 656.01 225.906C656.184 225.997 656.378 226.042 656.594 226.042C656.983 226.042 657.312 225.969 657.583 225.823C657.861 225.67 658.073 225.486 658.219 225.271C658.365 225.056 658.437 224.854 658.437 224.667L659.208 226.104C659.069 226.382 658.91 226.663 658.729 226.948C658.556 227.233 658.337 227.497 658.073 227.74C657.816 227.976 657.5 228.17 657.125 228.323C656.75 228.469 656.295 228.542 655.76 228.542C655.066 228.542 654.427 228.399 653.844 228.115C653.267 227.83 652.806 227.434 652.458 226.927C652.111 226.413 651.937 225.823 651.937 225.156C651.937 224.573 652.042 224.052 652.25 223.594C652.465 223.135 652.788 222.747 653.219 222.427C653.649 222.108 654.198 221.865 654.865 221.698C655.531 221.531 656.316 221.448 657.219 221.448H658.729ZM667.323 219.854V228.333H663.812V217.062H667.094L667.323 219.854ZM670.656 216.979L670.594 220.24C670.455 220.226 670.267 220.208 670.031 220.187C669.795 220.167 669.597 220.156 669.437 220.156C669.028 220.156 668.674 220.205 668.375 220.302C668.083 220.392 667.84 220.531 667.646 220.719C667.458 220.899 667.319 221.128 667.229 221.406C667.146 221.684 667.108 222.007 667.115 222.375L666.479 221.958C666.479 221.201 666.552 220.514 666.698 219.896C666.851 219.271 667.066 218.733 667.344 218.281C667.622 217.823 667.958 217.472 668.354 217.229C668.75 216.979 669.194 216.854 669.687 216.854C669.861 216.854 670.031 216.865 670.198 216.885C670.372 216.906 670.524 216.937 670.656 216.979ZM677.406 225.5V220.854C677.406 220.535 677.361 220.26 677.271 220.031C677.181 219.802 677.038 219.625 676.844 219.5C676.649 219.368 676.389 219.302 676.063 219.302C675.799 219.302 675.573 219.347 675.385 219.437C675.198 219.528 675.056 219.663 674.958 219.844C674.861 220.024 674.813 220.253 674.813 220.531H671.302C671.302 220.01 671.417 219.528 671.646 219.083C671.882 218.632 672.215 218.24 672.646 217.906C673.083 217.573 673.604 217.316 674.208 217.135C674.819 216.948 675.5 216.854 676.25 216.854C677.146 216.854 677.944 217.003 678.646 217.302C679.354 217.601 679.913 218.049 680.323 218.646C680.733 219.236 680.938 219.979 680.938 220.875V225.49C680.938 226.226 680.979 226.785 681.063 227.167C681.146 227.542 681.264 227.872 681.417 228.156V228.333H677.896C677.729 227.986 677.604 227.562 677.521 227.062C677.444 226.556 677.406 226.035 677.406 225.5ZM677.833 221.448L677.854 223.323H676.302C675.976 223.323 675.698 223.368 675.469 223.458C675.247 223.549 675.066 223.674 674.927 223.833C674.795 223.986 674.698 224.16 674.635 224.354C674.58 224.549 674.552 224.753 674.552 224.969C674.552 225.177 674.601 225.365 674.698 225.531C674.802 225.691 674.941 225.816 675.115 225.906C675.288 225.997 675.483 226.042 675.698 226.042C676.087 226.042 676.417 225.969 676.688 225.823C676.965 225.67 677.177 225.486 677.323 225.271C677.469 225.056 677.542 224.854 677.542 224.667L678.313 226.104C678.174 226.382 678.014 226.663 677.833 226.948C677.66 227.233 677.441 227.497 677.177 227.74C676.92 227.976 676.604 228.17 676.229 228.323C675.854 228.469 675.399 228.542 674.865 228.542C674.17 228.542 673.531 228.399 672.948 228.115C672.372 227.83 671.91 227.434 671.563 226.927C671.215 226.413 671.042 225.823 671.042 225.156C671.042 224.573 671.146 224.052 671.354 223.594C671.569 223.135 671.892 222.747 672.323 222.427C672.753 222.108 673.302 221.865 673.969 221.698C674.635 221.531 675.42 221.448 676.323 221.448H677.833ZM686.781 225.927L689 217.062H692.698L689.01 228.333H686.823L686.781 225.927ZM685.469 217.062L687.656 225.927L687.635 228.333H685.437L681.76 217.062H685.469ZM699.052 228.542C698.135 228.542 697.316 228.399 696.594 228.115C695.872 227.823 695.26 227.424 694.76 226.917C694.267 226.41 693.889 225.826 693.625 225.167C693.368 224.507 693.24 223.809 693.24 223.073V222.677C693.24 221.851 693.354 221.087 693.583 220.385C693.812 219.677 694.153 219.059 694.604 218.531C695.056 218.003 695.622 217.594 696.302 217.302C696.983 217.003 697.774 216.854 698.677 216.854C699.476 216.854 700.191 216.983 700.823 217.24C701.455 217.497 701.99 217.865 702.427 218.344C702.872 218.823 703.208 219.403 703.437 220.083C703.674 220.764 703.792 221.528 703.792 222.375V223.802H694.583V221.604H700.365V221.333C700.372 220.958 700.306 220.639 700.167 220.375C700.035 220.111 699.84 219.91 699.583 219.771C699.326 219.632 699.014 219.562 698.646 219.562C698.264 219.562 697.948 219.646 697.698 219.812C697.455 219.979 697.264 220.208 697.125 220.5C696.993 220.785 696.899 221.115 696.844 221.49C696.788 221.865 696.76 222.26 696.76 222.677V223.073C696.76 223.49 696.816 223.868 696.927 224.208C697.045 224.549 697.212 224.84 697.427 225.083C697.649 225.319 697.913 225.503 698.219 225.635C698.531 225.767 698.885 225.833 699.281 225.833C699.76 225.833 700.233 225.743 700.698 225.562C701.163 225.382 701.562 225.083 701.896 224.667L703.49 226.562C703.26 226.889 702.934 227.205 702.51 227.51C702.094 227.816 701.594 228.066 701.01 228.26C700.427 228.448 699.774 228.542 699.052 228.542ZM708.927 212.333V228.333H705.406V212.333H708.927Z" fill="white"/>
</svg>
